<svg width="30" height="40" viewBox="0 0 30 40" fill="none" xmlns="http://www.w3.org/2000/svg">
<path d="M29.3848 13.5117C29.4344 13.5862 29.5089 13.6607 29.5337 13.7351L29.3848 13.5117Z" fill="black"/>
<path d="M29.6576 15.5227C29.6079 16.0688 29.6079 16.5901 29.5335 17.0866C29.3597 18.1293 29.2107 19.2216 28.888 20.2146C28.5405 21.3317 28.0936 22.424 27.5723 23.4666C26.4303 25.8498 24.916 27.9848 23.3024 30.0452C21.1178 32.8256 18.9084 35.5563 16.699 38.3119C16.3018 38.8084 15.9046 39.3049 15.5074 39.7766C15.4577 39.8511 15.3833 39.9255 15.2343 39.9752C15.2343 39.3049 15.2343 38.6595 15.2343 37.9892C15.2095 35.4074 15.2591 32.8504 15.557 30.2935C15.6563 29.3501 15.706 28.3571 16.2273 27.5379C16.55 27.0166 17.0465 26.5697 17.5182 26.1477C18.6602 25.1299 19.8517 24.1617 20.9937 23.1191C21.9867 22.2254 22.7811 21.1579 23.3272 19.9167C23.9975 18.4023 24.1465 16.8136 23.9975 15.1751C23.8734 13.9587 23.6003 12.7919 23.2279 11.65C23.0045 11.0045 22.7563 10.3591 22.508 9.71363C22.4832 9.63916 22.3839 9.56468 22.2846 9.53986C20.7454 9.14266 19.2063 8.79511 17.6175 8.64616C16.7735 8.57169 15.9294 8.44756 15.1102 8.44756C14.1172 8.44756 13.1242 8.52204 12.156 8.62134C11.163 8.74546 10.1452 8.91924 9.15222 9.09301C8.60607 9.19231 8.05992 9.36609 7.51377 9.46539C7.19105 9.51503 7.09175 9.71363 7.01728 9.96188C6.79385 10.5825 6.57043 11.1783 6.347 11.7989C5.97463 12.8912 5.72638 14.0332 5.60226 15.1999C5.27953 18.1044 6.12358 20.6366 8.18405 22.6971C9.15222 23.6652 10.2197 24.5093 11.2375 25.4278C11.8581 25.9988 12.4788 26.5697 13.0994 27.1655C13.5214 27.5627 13.6455 28.0841 13.7448 28.6054C13.9186 29.3998 14.0427 30.219 14.1172 31.0134C14.3406 33.3469 14.3654 35.6805 14.3654 38.0388C14.3654 38.6843 14.3654 39.3297 14.3654 39.9752C14.3406 39.9752 14.291 40 14.2661 40C14.2165 39.9504 14.1668 39.8759 14.1172 39.8262C11.883 37.0707 9.67354 34.3151 7.46413 31.5595C5.77603 29.4246 4.13759 27.24 2.77222 24.8816C1.8537 23.2929 1.08413 21.6296 0.612455 19.867C-0.00816694 17.5831 -0.157115 15.2744 0.165608 12.9409C0.438682 10.9052 1.13378 8.99371 2.17642 7.23114C3.59144 4.84795 5.52779 2.98609 7.98545 1.69519C9.15222 1.07457 10.3935 0.602898 11.6844 0.329824C13.149 0.00710077 14.6385 -0.0673739 16.1528 0.0567506C18.2878 0.230525 20.2489 0.875972 22.1108 1.91862C24.0223 3.01091 25.5863 4.47558 26.8524 6.26297C27.6468 7.40492 28.317 8.62134 28.7391 9.93706C29.0618 10.9052 29.2604 11.8982 29.5086 12.8912C29.5583 12.916 29.6824 15.3489 29.6576 15.5227Z" fill="#272727"/>
<path d="M23.253 16.0191C23.3026 17.037 23.1537 18.0051 22.8558 18.9485C22.3345 20.5621 21.3415 21.853 20.1002 22.9453C18.9335 23.9631 17.717 24.9561 16.5006 25.9243C16.0041 26.3215 15.4083 26.6194 14.7381 26.5697C14.1919 26.5449 13.7451 26.3215 13.323 25.9987C11.5853 24.683 9.84755 23.3425 8.4077 21.6792C7.38988 20.5124 6.74443 19.1471 6.52101 17.5831C6.47136 17.2356 6.47136 16.8632 6.44654 16.5156C6.42171 16.317 6.54584 16.2426 6.69479 16.2177C7.21611 16.0688 7.73743 15.895 8.28358 15.8454C9.22692 15.7461 10.1703 15.6468 11.1384 15.6716C12.0818 15.6964 13.0003 15.8454 13.9437 15.9695C14.9863 16.0936 16.0041 16.2177 17.0468 16.3915C18.1142 16.5653 19.2065 16.5653 20.274 16.5405C21.1925 16.5156 22.111 16.3419 22.9799 16.044C23.0296 16.0191 23.104 15.9943 23.1537 15.9943C23.1785 16.0191 23.2033 16.0191 23.253 16.0191Z" fill="url(#paint0_linear)"/>
<defs>
<linearGradient id="paint0_linear" x1="14.8529" y1="15.6677" x2="14.8529" y2="26.5751" gradientUnits="userSpaceOnUse">
<stop stop-color="#DA0034"/>
<stop offset="1" stop-color="#80001F"/>
</linearGradient>
</defs>
</svg>
