<svg width="42" height="40" viewBox="0 0 42 40" fill="none" xmlns="http://www.w3.org/2000/svg">
<path d="M7.23079 34.4959C8.27353 30.5643 9.35045 26.5301 10.4445 22.4788C9.29917 22.0173 8.30771 21.3677 7.53848 20.4105C6.03421 18.5472 5.57267 16.4446 6.18806 14.137C6.99147 11.06 7.82908 7.98311 8.64959 4.90618C8.95729 3.77798 9.45301 3.48738 10.5983 3.79507C14.0171 4.70106 17.4359 5.60704 20.8376 6.53012C21.8804 6.80362 22.2052 7.35063 21.9316 8.39336C21.1111 11.4703 20.3077 14.5472 19.4701 17.6241C18.5128 21.1455 15.5385 23.1797 11.9316 22.8036C11.8462 22.7865 11.7436 22.8036 11.6069 22.8036C10.5299 26.8549 9.45301 30.8891 8.37609 34.9062C9.09404 35.231 9.81199 35.4532 10.4274 35.8635C11.3504 36.4788 12.2393 37.1626 13.0428 37.8976C13.3675 38.1882 13.5385 38.7352 13.624 39.1968C13.7265 39.8293 13.3504 40.1028 12.7351 39.9318C10 39.2139 7.26498 38.4788 4.52994 37.7609C3.38464 37.4532 2.22224 37.1626 1.07695 36.8378C0.290621 36.6156 0.119681 36.0515 0.700877 35.4532C1.43592 34.7182 2.41028 34.4959 3.38464 34.4446C4.59831 34.3934 5.84618 34.4788 7.23079 34.4959ZM19.1795 14.0002C19.0257 13.966 18.9573 13.9489 18.8889 13.9489C15.2137 13.9489 11.5385 13.9489 7.86327 13.9318C7.55558 13.9318 7.43592 14.0686 7.35045 14.3592C6.46156 17.3677 8.08549 20.4788 11.0599 21.419C14.0342 22.3592 17.1795 20.7694 18.1368 17.778C18.5299 16.5472 18.8205 15.2993 19.1795 14.0002ZM7.81199 12.6327C7.91455 12.684 7.93165 12.7011 7.94874 12.7011C11.7094 12.7182 15.453 12.7182 19.2137 12.7182C19.3334 12.7182 19.5214 12.5985 19.5556 12.4959C19.9829 10.9404 20.3932 9.38482 20.8376 7.77798C17.1624 6.80362 13.5556 5.82926 9.89746 4.8549C9.1966 7.48738 8.51284 10.0515 7.81199 12.6327ZM11.9316 38.4959C9.86327 36.0515 4.70088 34.9404 2.3419 35.9318C5.55558 36.8036 8.66669 37.6241 11.9316 38.4959Z" fill="#0C8CD5"/>
<path d="M33.4018 31.5387C32.5813 27.4019 31.7607 23.3164 30.9402 19.1968C30.359 19.1626 29.7266 19.1797 29.1112 19.0771C26.0855 18.5472 24.0001 16.4617 23.4018 13.4703C22.7864 10.3763 22.1539 7.26514 21.5385 4.17113C21.3334 3.14548 21.7095 2.61557 22.718 2.41044C26.171 1.72668 29.6069 1.02583 33.0599 0.342065C34.2907 0.085655 34.7693 0.393347 35.0086 1.60702C35.6582 4.78651 36.2907 7.966 36.9231 11.1455C37.5556 14.3763 35.6411 17.6583 32.4958 18.8036C32.3248 18.872 32.171 18.9233 32.0855 18.9404C32.906 23.0429 33.7437 27.1455 34.5813 31.2993C34.906 31.2822 35.2137 31.2651 35.5214 31.231C37.0086 31.0942 38.4616 31.1968 39.8462 31.7609C40.3249 31.966 40.8035 32.3079 41.1454 32.701C41.5898 33.2139 41.3676 33.7096 40.7009 33.8463C36.7009 34.6669 32.7009 35.4703 28.7009 36.2566C28.1197 36.3763 27.6753 35.9147 27.9146 35.3164C28.1197 34.7694 28.4616 34.2224 28.8889 33.8292C29.9659 32.7865 31.2992 32.1882 32.718 31.7438C32.906 31.6754 33.1112 31.6241 33.4018 31.5387ZM23.8462 9.53865C24.1368 10.9745 24.3761 12.3079 24.6667 13.6412C25.1966 16.0515 27.4018 17.9318 29.7778 18.0173C32.53 18.1198 34.8206 16.5472 35.5898 14.0173C35.983 12.7352 35.7778 11.4703 35.5214 10.2053C35.4189 9.65831 35.1966 9.53865 34.6838 9.53865C31.2992 9.55574 27.9146 9.55574 24.53 9.55574C24.3419 9.53865 24.1368 9.53865 23.8462 9.53865ZM22.6667 3.62412C22.9573 5.07711 23.2308 6.41044 23.4701 7.76087C23.5556 8.2395 23.7436 8.39335 24.2394 8.37625C27.6582 8.35916 31.0941 8.35916 34.5129 8.35916C34.7009 8.35916 34.889 8.35916 35.1625 8.35916C34.6838 6.00019 34.2394 3.72668 33.7778 1.40189C30.0513 2.13694 26.3932 2.87198 22.6667 3.62412ZM39.3676 32.9062C36.8377 31.7267 31.5385 32.6839 29.6924 34.8378C32.9402 34.1882 36.1026 33.5557 39.3676 32.9062Z" fill="#0C8CD5"/>
<path d="M19.7436 28.7349C19.8119 28.2563 19.9316 27.6751 19.9487 27.0939C19.9487 26.8204 19.829 26.4956 19.6581 26.2905C19.282 25.8802 18.8034 25.5384 18.4102 25.1281C18.2393 24.9572 18.0854 24.6324 18.1367 24.4272C18.188 24.2392 18.4786 24.0341 18.7179 23.9657C19.282 23.8119 19.8803 23.7606 20.4273 23.5896C20.6495 23.5213 20.906 23.3332 21.0085 23.1281C21.2649 22.6666 21.4188 22.1537 21.6752 21.6922C21.829 21.4358 22.0854 21.0768 22.3248 21.0597C22.547 21.0426 22.8547 21.3674 23.0256 21.6067C23.3333 22.0512 23.5555 22.564 23.8461 23.0255C23.9487 23.1965 24.188 23.3332 24.376 23.3674C24.9914 23.47 25.6239 23.4871 26.2393 23.6067C26.4615 23.6409 26.7521 23.8119 26.8205 23.9828C26.8889 24.1708 26.7863 24.4956 26.6495 24.6495C26.2564 25.1281 25.7778 25.5555 25.3846 26.0341C25.2478 26.205 25.1795 26.4785 25.2136 26.7008C25.2991 27.299 25.4701 27.8802 25.5726 28.4785C25.6923 29.1965 25.2991 29.4871 24.6325 29.2136C23.9487 28.923 23.2649 28.376 22.5983 28.3931C21.9487 28.4273 21.3504 29.0426 20.7179 29.4016C20.1538 29.7606 19.7436 29.5042 19.7436 28.7349ZM20.0171 24.9572C21.2136 25.6067 21.4359 26.5811 21.1624 27.8119C22.1538 26.8546 23.1111 26.9743 24.1709 27.6409C23.6239 26.4102 23.9487 25.4871 24.9572 24.7008C23.6239 24.8375 22.8376 24.2734 22.4102 23.0426C22.1367 24.3589 21.3333 24.923 20.0171 24.9572Z" fill="#0C8CD5"/>
<path d="M1.82907 1.6754C2.42736 1.86343 2.85471 1.53864 3.1624 0.957448C3.26496 0.769413 3.40172 0.598473 3.53847 0.444627C3.88035 0.0685588 4.47864 0.154029 4.54701 0.632661C4.73505 1.79505 5.36753 2.35916 6.47864 2.59847C7.00855 2.71813 7.09402 3.3677 6.5983 3.62411C5.55556 4.15403 5.24787 4.92326 5.36753 6.03437C5.4359 6.56428 4.82052 6.87198 4.44445 6.513C3.60684 5.70958 2.78633 5.53864 1.7265 6.06856C1.24787 6.29078 0.769238 5.77796 1.00855 5.29933C1.52137 4.27369 1.38462 3.45317 0.615391 2.63266C0.239323 2.2224 0.547015 1.70958 1.14531 1.6754C1.33334 1.6754 1.53847 1.6754 1.82907 1.6754ZM2.73505 4.37625C3.1624 4.44463 3.65813 4.5301 4.05129 4.59847C4.27351 4.17112 4.51283 3.74377 4.68377 3.41899C4.35898 3.07711 4.00001 2.70104 3.7436 2.42753C3.31625 2.64976 2.8718 2.85488 2.51283 3.04292C2.5812 3.45317 2.66667 3.93181 2.73505 4.37625Z" fill="#0C8CD5"/>
<path d="M34.6325 18.9574C35.265 19.1797 35.6582 18.8036 35.983 18.2395C36.0855 18.0686 36.2052 17.9147 36.3248 17.7609C36.6838 17.3506 37.2821 17.4019 37.3676 17.8976C37.5556 19.0429 38.1539 19.6412 39.2821 19.8634C39.7949 19.966 39.8975 20.6498 39.436 20.8891C38.4274 21.419 38.0342 22.154 38.171 23.2822C38.2394 23.8634 37.6411 24.1711 37.2308 23.7609C36.4445 23.0087 35.6582 22.8036 34.6325 23.2993C34.0684 23.5728 33.5898 23.0771 33.8462 22.5301C34.3248 21.5215 34.2052 20.7352 33.4359 19.9147C33.0257 19.4703 33.3334 18.9574 33.9488 18.9233C34.171 18.9404 34.3761 18.9574 34.6325 18.9574ZM37.7265 20.6156C37.0086 20.5814 36.7693 20.1027 36.5471 19.5045C36.3077 20.1711 35.7778 20.2566 35.3334 20.2395C35.4189 20.7694 35.4872 21.248 35.5556 21.6583C36.0001 21.7438 36.4787 21.8292 36.9915 21.9147C36.8889 21.3848 37.1624 20.9574 37.7265 20.6156Z" fill="#0C8CD5"/>
<path d="M1.82902 22.0171C2.66663 22.2735 3.09398 22 3.38458 21.4188C3.45295 21.2821 3.53842 21.1282 3.65808 21.0427C3.8803 20.8718 4.15381 20.6154 4.35894 20.6496C4.56406 20.6838 4.735 21.0256 4.90594 21.2308C4.94013 21.265 4.94013 21.3333 4.95723 21.4017C5.05979 22.2564 5.53842 22.718 6.39312 22.8889C6.68372 22.9402 7.09398 23.2479 7.11107 23.4872C7.14526 23.7265 6.83757 24.1197 6.58116 24.2564C5.79483 24.6667 5.52133 25.2479 5.64099 26.1026C5.67518 26.3761 5.52133 26.8718 5.35039 26.9402C5.09398 27.0256 4.73501 26.8205 4.41022 26.718C4.32475 26.6838 4.23928 26.6154 4.1709 26.547C3.72646 26.0855 3.24783 26 2.64954 26.2735C2.27347 26.4444 1.81193 26.7692 1.40167 26.3419C0.991416 25.9145 1.3333 25.4701 1.50424 25.094C1.76065 24.5299 1.70936 24.0855 1.29911 23.6068C1.0256 23.2992 0.512783 22.906 0.83757 22.4615C1.0427 22.1709 1.57261 22.1197 1.82902 22.0171ZM2.99142 24.7863C3.40167 24.8547 3.91449 24.9231 4.4615 25.0086C4.37603 24.5128 4.61535 24.0855 5.0427 23.8633C4.66663 23.4701 4.32475 23.1282 3.93159 22.735C3.76065 23.265 3.21364 23.3162 2.80338 23.3333C2.85466 23.8803 2.92304 24.3761 2.99142 24.7863Z" fill="#0C8CD5"/>
<path d="M39.6068 0.119629C39.7607 0.341851 40.0513 0.581167 40.0342 0.786296C40.0171 1.00852 39.6923 1.19655 39.5043 1.40168C39.2991 1.21365 38.9743 1.02561 38.9401 0.80339C38.906 0.598261 39.1966 0.341851 39.3504 0.119629C39.4359 0.136723 39.5213 0.136723 39.6068 0.119629Z" fill="#0C8CD5"/>
<path d="M22.0684 16.3931C22.2222 16.6153 22.4615 16.8204 22.5128 17.0597C22.5812 17.4187 22.3419 17.6409 21.9658 17.6409C21.6068 17.658 21.3333 17.4529 21.3846 17.0939C21.4188 16.8375 21.6581 16.6324 21.7949 16.3931C21.8974 16.3931 21.9829 16.3931 22.0684 16.3931Z" fill="#0C8CD5"/>
<path d="M13.8632 25.9829C13.641 26.1368 13.4017 26.4274 13.1966 26.3932C12.9743 26.359 12.7863 26.0513 12.5812 25.8633C12.7692 25.6752 12.9572 25.3504 13.1795 25.3162C13.3846 25.2821 13.6239 25.5727 13.8461 25.7094C13.8632 25.7949 13.8632 25.8974 13.8632 25.9829Z" fill="#0C8CD5"/>
<path d="M38.9402 28.5126C38.7009 28.6493 38.4786 28.8886 38.2393 28.9228C37.8803 28.9741 37.6068 28.6835 37.7094 28.3416C37.7778 28.1194 38.0855 27.8117 38.2906 27.7946C38.4957 27.7775 38.735 28.0852 38.9573 28.2562C38.9402 28.3416 38.9402 28.4271 38.9402 28.5126Z" fill="#0C8CD5"/>
<path d="M15.5727 32.7864C15.4188 32.5642 15.1283 32.3078 15.1624 32.1198C15.1966 31.8976 15.5214 31.7266 15.7094 31.5215C15.9146 31.7266 16.2394 31.8976 16.2735 32.1198C16.3077 32.3249 16 32.5642 15.8462 32.7864C15.7436 32.7864 15.6582 32.7864 15.5727 32.7864Z" fill="#0C8CD5"/>
<path d="M25.8461 31.4189C26 31.6412 26.2393 31.8463 26.2906 32.1027C26.359 32.4617 26.1025 32.6839 25.7436 32.6839C25.3846 32.6839 25.1111 32.4788 25.1795 32.1198C25.2137 31.8805 25.453 31.6583 25.5897 31.4189C25.6752 31.436 25.7607 31.4189 25.8461 31.4189Z" fill="#0C8CD5"/>
<path d="M21.3846 38.5127C21.1624 38.6665 20.923 38.9742 20.7179 38.9401C20.4957 38.9059 20.3077 38.5811 20.1196 38.376C20.3248 38.1879 20.4957 37.8631 20.7179 37.8289C20.923 37.7948 21.1624 38.0854 21.3846 38.2392C21.3846 38.3247 21.3846 38.4272 21.3846 38.5127Z" fill="#0C8CD5"/>
<path d="M16.3931 0.923057C16.1709 1.094 15.9316 1.3846 15.7265 1.3675C15.5042 1.35041 15.2137 1.04272 15.1453 0.820493C15.0598 0.478613 15.3333 0.188014 15.6923 0.239297C15.9487 0.273485 16.1538 0.512801 16.3931 0.666647C16.3931 0.752117 16.3931 0.837587 16.3931 0.923057Z" fill="#0C8CD5"/>
<path d="M38.9401 8.46141C38.7008 8.61525 38.4615 8.90585 38.2393 8.87166C38.0171 8.83748 37.7436 8.52978 37.6923 8.29047C37.6239 7.94859 37.9145 7.67508 38.2735 7.74346C38.5128 7.79474 38.7179 8.03406 38.9572 8.205C38.9402 8.29047 38.9401 8.37594 38.9401 8.46141Z" fill="#0C8CD5"/>
<path d="M1.36752 12.2051C1.1453 12.359 0.88889 12.6666 0.683762 12.6325C0.461539 12.6154 0.170941 12.2906 0.119659 12.0684C0.0512832 11.7265 0.324787 11.453 0.683762 11.5043C0.923078 11.5555 1.1453 11.7949 1.36752 11.9487C1.36752 12.0342 1.36752 12.1196 1.36752 12.2051Z" fill="#0C8CD5"/>
<path d="M30.1539 23.4873C29.9317 23.6412 29.6753 23.9317 29.4872 23.8976C29.265 23.8634 28.9915 23.5557 28.9402 23.3335C28.8548 22.9745 29.1454 22.7181 29.5043 22.7865C29.7436 22.8206 29.9488 23.06 30.171 23.2138C30.1539 23.3164 30.1539 23.4018 30.1539 23.4873Z" fill="#0C8CD5"/>
<path d="M5.12818 30.9741C4.90596 31.128 4.66664 31.4357 4.44442 31.4186C4.2222 31.4015 3.9316 31.0938 3.88032 30.8545C3.79485 30.5126 4.08545 30.2391 4.42733 30.2904C4.66664 30.3246 4.88887 30.5639 5.12818 30.7177C5.12818 30.8203 5.12818 30.9058 5.12818 30.9741Z" fill="#0C8CD5"/>
<path d="M37.1453 37.7095C37.282 37.9317 37.5726 38.1881 37.5384 38.3761C37.5042 38.5984 37.1795 38.7693 36.9914 38.9744C36.8034 38.7693 36.4786 38.5813 36.4615 38.359C36.4273 38.1539 36.7179 37.9146 36.8718 37.6924C36.9572 37.7095 37.0427 37.7095 37.1453 37.7095Z" fill="#0C8CD5"/>
</svg>
