<svg width="44" height="40" viewBox="0 0 44 40" fill="none" xmlns="http://www.w3.org/2000/svg">
<g clip-path="url(#clip0)">
<path d="M42.0586 14.7785C40.2678 13.7743 38.2427 13.5902 36.251 13.1885C36.318 12.7032 36.3849 12.2513 36.4519 11.7492C38.4937 12.1174 40.5188 12.3852 42.3598 13.3224C43.1799 13.7241 43.5648 14.3266 43.5648 15.3141C43.5314 19.5484 43.5481 23.7827 43.5481 28.0003C43.5481 28.7701 43.3305 29.0044 42.5607 29.0044C41.0879 29.0212 39.682 28.7534 38.3096 28.2513C35.7155 27.2973 33.1046 27.2806 30.5105 28.2513C28.8033 28.8873 27.0293 29.0714 25.205 29.0044C25.0377 29.0044 24.8703 29.0044 24.636 29.0044C24.4351 32.1341 24.2176 35.2639 24 38.427C24.9707 38.427 25.8745 38.427 26.8285 38.427C26.8285 38.9124 26.8285 39.3643 26.8285 39.8496C23.4812 39.8496 20.1172 39.8496 16.7364 39.8496C16.7364 39.3977 16.7364 38.9459 16.7364 38.4438C17.6569 38.4438 18.5774 38.4438 19.5481 38.4438C19.4979 37.4731 19.4477 36.5358 19.3975 35.6153C19.2469 33.1216 19.0962 30.6446 18.9623 28.1509C18.9456 27.7325 18.8285 27.5818 18.3933 27.5651C16.7531 27.4982 15.1799 27.699 13.6402 28.268C10.7615 29.3057 7.83264 29.3392 4.93724 28.3517C3.4477 27.8496 1.95816 27.4982 0.368201 27.5651C0.301255 27.5651 0.217573 27.5651 0.133891 27.5484C0.100418 27.5484 0.0836821 27.5316 0.0167365 27.4982C0.0167365 27.3475 0.0167365 27.1634 0.0167365 26.9793C0.0167365 23.0128 0.0334728 19.0295 0 15.063C0 14.3936 0.23431 13.858 0.786611 13.607C1.74059 13.1551 2.7113 12.7367 3.71548 12.4521C4.98745 12.1007 6.30962 11.9166 7.66527 11.6655C7.74895 12.1676 7.8159 12.6362 7.89958 13.1383C5.72385 13.5735 3.49791 13.7576 1.38912 14.8957C1.74059 15.0965 1.9749 15.2471 2.22594 15.3475C3.79916 15.9835 5.4728 16.268 7.14644 16.5023C14.1255 17.4731 21.1548 17.5735 28.1841 17.2555C31.6318 17.1049 35.0628 16.8203 38.4435 16.1341C39.4142 15.9333 40.3682 15.6153 41.3222 15.3308C41.5732 15.2471 41.8075 15.0965 42.0418 14.9626C42.0586 14.8789 42.0586 14.8287 42.0586 14.7785ZM42.0753 16.5693C41.0042 16.8705 39.9498 17.2387 38.8787 17.4563C34.7113 18.3266 30.477 18.5609 26.2259 18.7283C21.9749 18.9124 17.7406 18.8454 13.5063 18.5275C10.9958 18.3434 8.48536 18.0588 5.99163 17.6906C4.46862 17.4563 2.97908 16.9877 1.50628 16.6195C1.50628 19.6823 1.50628 22.8622 1.50628 26.0254C2.2092 26.1258 2.87866 26.1927 3.54812 26.3434C4.20084 26.494 4.85356 26.6948 5.50628 26.9124C8.01674 27.7659 10.5105 27.7492 13.0042 26.8622C16.0669 25.7743 19.1297 25.7743 22.1757 26.8622C24.6527 27.7492 27.1464 27.7994 29.6234 26.9124C32.8201 25.7743 36 25.7743 39.1967 26.9124C40.1004 27.2304 41.0879 27.381 42.0753 27.6153C42.0753 23.8329 42.0753 20.1844 42.0753 16.5693ZM21.0209 38.3936C21.5732 38.3936 22.0418 38.3936 22.5607 38.3936C22.7782 35.1634 22.9958 31.9668 23.1967 28.7869C22.2594 28.4856 21.3556 28.2011 20.4017 27.8831C20.6192 31.4145 20.8201 34.8957 21.0209 38.3936Z" fill="#0C8CD5"/>
<path d="M26.8619 13.7406C26.8619 14.2594 26.8619 14.6945 26.8619 15.1632C23.4979 15.1632 20.1339 15.1632 16.7531 15.1632C16.7531 14.7113 16.7531 14.2594 16.7531 13.774C18.1757 13.774 19.5816 13.774 21.0376 13.774C21.0376 12.318 21.0376 10.8954 21.0376 9.40583C20.3012 9.40583 19.5481 9.42257 18.8117 9.40583C18.41 9.40583 17.9916 9.40583 17.6067 9.32215C16.7196 9.10458 16.0334 8.30123 16.0167 7.39747C15.9832 5.92466 16.0167 4.43512 16.0167 2.92885C16.4853 2.92885 16.9372 2.92885 17.456 2.92885C17.456 3.36399 17.456 3.81588 17.456 4.26776C17.456 5.23847 17.456 6.20918 17.456 7.16316C17.456 7.63177 17.7071 7.94977 18.1422 7.9665C19.1129 7.98324 20.0669 7.9665 21.0711 7.9665C21.0711 6.27613 21.0711 4.61922 21.0711 2.92885C21.5565 2.92885 22.0251 2.92885 22.5272 2.92885C22.5272 4.58575 22.5272 6.24265 22.5272 7.9665C23.5648 7.9665 24.5523 7.98324 25.5565 7.94977C25.9581 7.93303 26.1757 7.5983 26.1757 7.12968C26.1757 5.89119 26.1757 4.6527 26.1757 3.4142C26.1757 3.24684 26.1757 3.09621 26.1757 2.91211C26.6611 2.91211 27.1129 2.91211 27.5983 2.91211C27.615 3.046 27.615 3.16316 27.6318 3.29705C27.6318 4.58575 27.6318 5.85772 27.6318 7.14642C27.6318 8.50207 26.7113 9.40583 25.3389 9.42257C24.4351 9.42257 23.5313 9.42257 22.5774 9.42257C22.5774 10.8619 22.5774 12.2845 22.5774 13.7573C23.9665 13.7406 25.3891 13.7406 26.8619 13.7406Z" fill="#0C8CD5"/>
<path d="M10.9121 7.19667C10.9121 6.96236 10.9121 6.76152 10.9121 6.54395C11.3808 6.54395 11.8494 6.54395 12.3013 6.54395C12.3013 7.64855 12.3515 8.78662 12.2845 9.90796C12.2511 10.5607 11.7824 11.0293 11.2134 11.3306C10.9958 11.4477 10.9121 11.5649 10.9121 11.8159C10.9289 12.4519 10.9121 13.0879 10.9121 13.7573C11.1465 13.7741 11.364 13.7908 11.6151 13.8075C11.6151 14.2762 11.6151 14.7448 11.6151 15.2134C10.6611 15.2134 9.7406 15.2134 8.76989 15.2134C8.76989 14.7615 8.76989 14.2929 8.76989 13.8075C8.98746 13.7908 9.20503 13.7741 9.45608 13.7573C9.45608 13.0544 9.47282 12.3682 9.43934 11.682C9.43934 11.5816 9.32219 11.4477 9.22177 11.3975C8.38495 10.9289 7.98328 10.2427 8.00001 9.28872C8.01675 8.38495 8.00001 7.48118 8.00001 6.56068C8.48537 6.56068 8.93725 6.56068 9.42261 6.56068C9.43934 6.76152 9.45608 6.97909 9.45608 7.23014C9.94143 7.19667 10.3933 7.19667 10.9121 7.19667ZM9.47282 8.70294C9.48955 9.1883 9.28872 9.72386 9.82428 10.0084C10.0251 10.1088 10.4101 10.0921 10.6109 9.95817C11.0795 9.65692 10.8787 9.13809 10.8954 8.70294C10.3933 8.70294 9.94143 8.70294 9.47282 8.70294Z" fill="#0C8CD5"/>
<path d="M31.9498 6.51025C32.4519 6.51025 32.9038 6.51025 33.3892 6.51025C33.4059 6.74456 33.4059 6.96214 33.4226 7.19645C33.8913 7.19645 34.3432 7.19645 34.8285 7.19645C34.8452 6.97887 34.862 6.7613 34.862 6.52699C35.3306 6.52699 35.7992 6.52699 36.2846 6.52699C36.2846 7.59812 36.3348 8.65251 36.2678 9.69017C36.2344 10.4098 35.7992 10.9621 35.1632 11.2969C34.9289 11.414 34.8452 11.5479 34.8452 11.8157C34.862 12.4517 34.8452 13.0709 34.8452 13.7404C35.0963 13.7404 35.2971 13.7404 35.5314 13.7404C35.5314 14.2257 35.5314 14.6944 35.5314 15.1797C34.5942 15.1797 33.657 15.1797 32.6862 15.1797C32.6862 14.7111 32.6862 14.2592 32.6862 13.7739C32.9206 13.7739 33.1214 13.7739 33.3892 13.7739C33.3892 13.0375 33.4059 12.3345 33.3724 11.6316C33.3724 11.5312 33.2385 11.414 33.1381 11.3638C32.3515 10.9119 31.9331 10.2425 31.9331 9.33871C31.9498 8.40147 31.9498 7.48097 31.9498 6.51025ZM34.8285 8.70272C34.3432 8.70272 33.8913 8.70272 33.4059 8.70272C33.4226 9.17134 33.2218 9.70691 33.7239 9.99142C33.9247 10.1086 34.3097 10.1086 34.5105 9.99142C35.0126 9.69017 34.8285 9.17134 34.8285 8.70272Z" fill="#0C8CD5"/>
<path d="M23.9833 12.2679C23.9833 11.7993 23.9833 11.3474 23.9833 10.8286C26.6444 10.9625 29.272 11.0797 31.9665 11.2136C31.9331 11.7491 31.9163 12.201 31.8829 12.6529C29.2218 12.5357 26.6276 12.4018 23.9833 12.2679Z" fill="#0C8CD5"/>
<path d="M19.5816 10.8286C19.5816 11.3474 19.5816 11.7993 19.5816 12.2847C17.3557 12.3851 15.1465 12.4855 12.887 12.5859C12.8536 12.1173 12.8201 11.6654 12.7866 11.1299C15.0795 11.0295 17.3054 10.929 19.5816 10.8286Z" fill="#0C8CD5"/>
<path d="M17.4058 1.40586C16.9372 1.40586 16.5021 1.40586 16.0334 1.40586C16.0334 0.937238 16.0334 0.485356 16.0334 0C16.4853 0 16.9372 0 17.4058 0C17.4058 0.468619 17.4058 0.937238 17.4058 1.40586Z" fill="#0C8CD5"/>
<path d="M22.477 1.40586C22.0084 1.40586 21.5732 1.40586 21.1046 1.40586C21.1046 0.937238 21.1046 0.485356 21.1046 0C21.5565 0 22.0084 0 22.477 0C22.477 0.468619 22.477 0.937238 22.477 1.40586Z" fill="#0C8CD5"/>
<path d="M27.5482 1.40586C27.0795 1.40586 26.6444 1.40586 26.1758 1.40586C26.1758 0.937238 26.1758 0.485356 26.1758 0C26.6277 0 27.0795 0 27.5482 0C27.5482 0.468619 27.5482 0.937238 27.5482 1.40586Z" fill="#0C8CD5"/>
<path d="M8.75317 26.0585C8.75317 24.1338 8.75317 22.2426 8.75317 20.3179C9.20506 20.3179 9.67367 20.3179 10.159 20.3179C10.159 22.2258 10.159 24.1338 10.159 26.0585C9.69041 26.0585 9.25527 26.0585 8.75317 26.0585Z" fill="#0C8CD5"/>
<path d="M25.4561 20.3013C25.9414 20.3013 26.3766 20.3013 26.8452 20.3013C26.8452 22.226 26.8452 24.1172 26.8452 26.0419C26.3933 26.0419 25.9414 26.0419 25.4561 26.0419C25.4561 24.1506 25.4561 22.2427 25.4561 20.3013Z" fill="#0C8CD5"/>
<path d="M35.5481 24.6191C35.0627 24.6191 34.6276 24.6191 34.1589 24.6191C34.1589 22.9454 34.1589 21.2885 34.1589 19.5981C34.6108 19.5981 35.0627 19.5981 35.5481 19.5981C35.5481 21.2383 35.5481 22.912 35.5481 24.6191Z" fill="#0C8CD5"/>
<path d="M16.7365 20.3013C17.2218 20.3013 17.657 20.3013 18.1256 20.3013C18.1256 21.7406 18.1256 23.1465 18.1256 24.6025C17.6737 24.6025 17.2218 24.6025 16.7365 24.6025C16.7365 23.1799 16.7365 21.7573 16.7365 20.3013Z" fill="#0C8CD5"/>
</g>
<defs>
<clipPath id="clip0">
<rect width="43.682" height="40" fill="white"/>
</clipPath>
</defs>
</svg>
