<svg width="40" height="40" viewBox="0 0 40 40" fill="none" xmlns="http://www.w3.org/2000/svg">
<path d="M18.3568 36.5143C17.4772 36.7633 16.6141 37.0621 15.7178 37.228C12.1826 37.8919 8.96264 37.0787 6.05808 35.0538C3.41907 33.2114 1.44397 30.8214 0.464715 27.6845C0.348532 27.3193 0.282142 26.9376 0.215752 26.5558C-1.53482e-05 25.2778 0.43152 24.2488 1.44397 23.4687C1.69293 23.2861 1.72613 23.1202 1.65974 22.8214C0.713678 19.1534 0.76347 15.4687 1.62654 11.7841C1.75932 11.2197 2.10787 10.9542 2.60579 11.0538C3.05393 11.1368 3.33608 11.6015 3.2033 12.1492C2.72198 14.1575 2.48961 16.199 2.63899 18.2571C2.73857 19.6181 2.97094 20.9791 3.13691 22.2737C5.06223 21.7592 6.88795 21.2778 8.71368 20.7799C8.71368 20.7799 8.68048 20.6969 8.61409 20.6305C6.22405 18.0745 5.42737 14.9874 5.64314 11.5849C5.64314 11.5683 5.64314 11.5517 5.64314 11.5351C5.79252 10.2073 6.14106 10.0081 7.35268 10.5558C9.34438 11.4521 11.5021 10.9044 13.0954 9.07866C13.3776 8.74671 13.6265 8.39816 13.8755 8.03302C14.39 7.26953 14.8548 7.21974 15.5021 7.85045C16.3485 8.66372 17.3112 9.24464 18.4896 9.36082C18.9377 9.41061 19.4191 9.36082 19.8838 9.32762C20.6307 9.26123 20.946 9.4604 21.0622 10.1907C21.6431 14.0745 20.9792 17.6264 18.2075 20.5973C18.1743 20.6305 18.1577 20.6803 18.1245 20.7135C18.1245 20.7301 18.1245 20.7467 18.1245 20.7135C19.9502 21.1948 21.7759 21.6928 23.6846 22.1907C23.8174 21.3774 24.0332 20.4646 24.1328 19.5683C24.5643 15.4687 23.9336 11.5517 22.0415 7.86704C20.946 5.72596 19.4689 3.88364 17.2946 2.70522C14.2075 1.02887 10.556 1.52679 7.81741 4.03302C7.12032 4.68032 6.52281 5.4604 5.9087 6.19069C5.51036 6.65542 4.94604 6.75501 4.5809 6.35667C4.31534 6.07451 4.23235 5.74256 4.46472 5.39401C6.30704 2.67202 8.69708 0.730114 12.0332 0.265384C15.2199 -0.182749 17.9419 0.846297 20.2821 2.98738C22.8216 5.32762 24.2655 8.29858 25.112 11.5849C26.0747 15.2695 26.0747 18.9708 25.1784 22.672C25.1286 22.8546 25.112 23.0372 25.0456 23.3193C25.2946 23.3193 25.4772 23.3193 25.6597 23.3193C29.2282 23.3193 32.8133 23.3193 36.3817 23.3193C38.0913 23.3193 39.4523 24.2986 39.751 25.8753C39.9336 26.838 40.0166 27.8338 39.6846 28.8131C39.668 28.8795 39.668 28.9625 39.668 29.0455C39.7178 29.6264 39.834 30.2239 39.834 30.8048C39.8506 32.6803 39.8506 34.5558 39.834 36.4314C39.834 38.4894 38.4564 39.867 36.3983 39.867C31.5684 39.867 26.7386 39.867 21.9253 39.867C19.8506 39.867 18.5726 38.6886 18.3734 36.6305C18.39 36.5641 18.3734 36.5309 18.3568 36.5143ZM21.1452 23.3193C20.9792 23.2529 20.8797 23.2031 20.7801 23.1865C19.4191 22.9044 18.0581 22.6222 16.6971 22.3235C16.1494 22.2073 15.6348 22.2571 15.1037 22.4397C13.8091 22.8878 12.5311 22.8048 11.2531 22.3401C11.0041 22.2571 10.722 22.2239 10.4564 22.2737C9.16181 22.506 7.8672 22.7384 6.5892 23.0372C5.2282 23.3525 3.9004 23.7675 2.72198 24.5475C2.02488 24.9957 1.64314 25.5932 1.84231 26.4397C1.9253 26.7882 1.97509 27.1368 2.07467 27.4687C2.90455 30.0081 4.49791 31.9998 6.62239 33.56C10.1245 36.1326 13.8921 36.5807 17.9087 34.8546C18.2406 34.7052 18.3568 34.5392 18.3402 34.1741C18.307 33.2778 18.307 32.3816 18.3402 31.4853C18.3734 30.6554 18.4564 29.8421 18.5228 29.0123C18.5228 28.9459 18.5228 28.8795 18.5062 28.8297C18.1743 27.8338 18.2406 26.7882 18.4564 25.809C18.7718 24.4314 19.751 23.6679 21.1452 23.3193ZM29.1784 29.1285C26.473 29.1285 23.7676 29.1285 21.0456 29.1285C20.3485 29.1285 20.0332 29.4272 20.0332 30.1077C20.0332 32.2322 20.0332 34.3733 20.0332 36.4977C20.0332 37.5102 20.6971 38.2073 21.7095 38.2073C26.6722 38.2239 31.6514 38.2239 36.6141 38.2073C37.6265 38.2073 38.2904 37.5102 38.307 36.4977C38.3236 34.4065 38.3236 32.3318 38.307 30.2405C38.307 29.4438 37.9585 29.1119 37.1618 29.1119C34.4896 29.1285 31.834 29.1285 29.1784 29.1285ZM7.2697 12.3816C7.28629 15.004 7.8672 17.3774 9.65974 19.2861C11.9336 21.726 15.0373 21.7094 17.2614 19.2197C19.2531 16.9791 19.751 14.2737 19.5187 11.3691C19.5021 11.1036 19.3527 11.087 19.1369 11.0704C18.7054 11.0704 18.2738 11.0372 17.8423 10.9708C16.7303 10.7882 15.7676 10.2571 14.8548 9.54339C13.9419 10.6886 12.8963 11.6181 11.5353 12.1824C10.1577 12.7799 8.74687 12.7965 7.2697 12.3816ZM38.2075 27.4853C38.4564 25.8753 37.7593 24.9127 36.0996 24.9791C34.2738 25.0621 32.4481 24.9957 30.6224 24.9957C27.6846 24.9957 24.7635 24.9957 21.8257 24.9957C21.1452 24.9957 20.5477 25.2114 20.2821 25.8421C20.0664 26.3235 20.0664 26.9044 19.9502 27.4853C26.1079 27.4853 32.1494 27.4853 38.2075 27.4853Z" fill="#0C8CD5"/>
<path d="M2.67215 8.7303C2.65555 8.29876 3.0373 7.91702 3.50203 7.90042C3.93356 7.88383 4.3319 8.26557 4.3319 8.7303C4.3319 9.14524 3.95016 9.52698 3.53522 9.52698C3.0373 9.52698 2.68875 9.19503 2.67215 8.7303Z" fill="#0C8CD5"/>
<path d="M29.1121 35.7843C27.8175 35.7843 26.5229 35.7843 25.2283 35.7843C24.581 35.7843 24.166 35.4523 24.166 34.9378C24.166 34.4399 24.5644 34.1079 25.1951 34.1079C27.8175 34.1079 30.4399 34.1079 33.0789 34.1079C33.7096 34.1079 34.0913 34.4233 34.1079 34.9378C34.1079 35.4689 33.7096 35.8009 33.0623 35.8009C31.7511 35.7843 30.4233 35.7843 29.1121 35.7843Z" fill="#0C8CD5"/>
<path d="M30.7551 32.4312C29.9916 32.4312 29.2281 32.4312 28.448 32.4312C27.8671 32.4312 27.4688 32.0993 27.4522 31.618C27.4356 31.1366 27.8339 30.7715 28.4148 30.7715C29.9916 30.7715 31.5849 30.7715 33.1617 30.7715C33.726 30.7715 34.0912 31.1034 34.0912 31.5848C34.1078 32.0827 33.726 32.4312 33.1451 32.4312C32.365 32.4312 31.5517 32.4312 30.7551 32.4312Z" fill="#0C8CD5"/>
<path d="M24.9793 30.7715C25.4274 30.7549 25.8092 31.1201 25.8258 31.5682C25.8424 32.033 25.4606 32.4313 24.9959 32.4313C24.5478 32.4313 24.166 32.0495 24.166 31.6014C24.166 31.1533 24.5478 30.7715 24.9793 30.7715Z" fill="#0C8CD5"/>
</svg>
