<svg width="37" height="40" viewBox="0 0 37 40" fill="none" xmlns="http://www.w3.org/2000/svg">
<path d="M19.5167 6.65C19.5167 4.4 19.5167 2.21667 19.5167 0C19.9667 0 20.3667 0 20.8333 0C20.8333 2.2 20.8333 4.4 20.8333 6.65C21.45 6.65 22.0333 6.65 22.6167 6.65C23.3 6.65 23.5167 6.86667 23.5167 7.53333C23.5167 8.11667 23.5333 8.7 23.5167 9.28333C23.5 9.58333 23.5833 9.71667 23.9 9.78333C26.4833 10.4167 28.7333 11.6667 30.6667 13.4667C33.2833 15.8833 34.8667 18.8833 35.3333 22.4C35.8333 26.15 35.2667 29.75 33.1167 32.9333C30.3333 37.0333 26.5167 39.55 21.5167 39.9333C15.75 40.3667 11.1 38.1833 7.65002 33.5167C5.61668 30.7833 4.75002 27.6667 4.85002 24.2833C5.06668 16.65 10.4 11.3 16.45 9.78333C16.75 9.7 16.8833 9.6 16.8667 9.26667C16.8333 8.65 16.85 8.05 16.8667 7.43333C16.8667 6.88333 17.1167 6.65 17.65 6.63333C18.2333 6.65 18.8333 6.65 19.5167 6.65ZM14.8333 18.0167C14.3667 19.9833 14.1 21.9667 14.1833 23.9833C18.1667 23.9833 22.1167 23.9833 26.1 23.9833C26.15 21.95 25.9167 19.9667 25.4333 18.0167C21.8833 18.0167 18.3833 18.0167 14.8333 18.0167ZM14.25 25.3667C14.2 27.4 14.4333 29.3833 14.9167 31.3333C18.4667 31.3333 21.9667 31.3333 25.5 31.3333C25.9667 29.3667 26.2333 27.3833 26.15 25.3667C22.1833 25.3667 18.2333 25.3667 14.25 25.3667ZM25.0333 16.6167C24.65 15.2 24.1167 13.9 23.2833 12.7667C22.85 12.1667 22.3167 11.6167 21.7333 11.1667C20.8167 10.4667 19.7833 10.4667 18.8167 11.0667C18.3167 11.3833 17.8667 11.8 17.4833 12.2333C16.45 13.4667 15.8833 14.95 15.35 16.4333C15.3333 16.4833 15.35 16.5333 15.3667 16.6C18.5667 16.6167 21.7667 16.6167 25.0333 16.6167ZM15.35 32.7C15.35 32.75 15.3333 32.8 15.35 32.8333C15.8167 34.4833 16.5167 36.0167 17.6333 37.3167C19.05 38.9833 20.7833 39.1167 22.3 37.6833C23.1333 36.9 23.7167 35.95 24.1833 34.9167C24.5 34.2 24.7833 33.4667 25.0833 32.6833C21.7833 32.7 18.5667 32.7 15.35 32.7ZM26.8167 31.35C28.6167 31.35 30.3667 31.3333 32.1167 31.35C32.4167 31.35 32.55 31.25 32.6833 30.9833C33.4167 29.5 33.8833 27.95 34.1 26.3167C34.1333 26.0167 34.1667 25.7 34.2167 25.35C34.0333 25.35 33.9333 25.35 33.8167 25.35C31.85 25.35 29.8667 25.3667 27.9 25.3333C27.5333 25.3333 27.4667 25.4667 27.45 25.7833C27.4 26.7833 27.35 27.7833 27.25 28.7667C27.15 29.6333 26.9667 30.4667 26.8167 31.35ZM12.75 23.9667C12.9833 21.9667 13.2 20 13.4333 18C11.65 18 9.85002 18 8.05002 18.0167C7.93335 18.0167 7.76668 18.1667 7.71668 18.3C6.85002 19.9167 6.41668 21.65 6.18335 23.45C6.16668 23.6167 6.18335 23.8 6.18335 23.9833C8.43335 23.9667 10.6167 23.9667 12.75 23.9667ZM34.0833 23.9667C34.1 23.8833 34.1167 23.8333 34.1167 23.7833C34.0333 21.8167 33.5333 19.95 32.6167 18.2C32.55 18.0833 32.3333 18 32.1833 18C30.5167 17.9833 28.85 17.9833 27.1833 18C27.0833 18 26.9667 18.0167 26.9333 18.0167C27.1667 20 27.4 21.9667 27.6333 23.9667C29.7333 23.9667 31.9 23.9667 34.0833 23.9667ZM12.7167 25.3833C10.6 25.3833 8.43335 25.3833 6.26668 25.3833C6.25002 25.45 6.23335 25.5 6.23335 25.5333C6.26668 27.55 6.86668 29.4 7.76668 31.1833C7.81668 31.2833 8.01668 31.35 8.13335 31.35C9.11668 31.3667 10.1 31.35 11.0833 31.35C11.8667 31.35 12.6667 31.35 13.4 31.35C13.1833 29.3667 12.95 27.4 12.7167 25.3833ZM13.8167 16.65C14.2 15.6667 14.5167 14.7 14.95 13.8C15.4 12.8833 15.9667 12.0333 16.4833 11.1667C13.3 12.0833 10.6833 13.8667 8.68335 16.65C10.4667 16.65 12.15 16.65 13.8167 16.65ZM31.65 32.7C29.8667 32.7 28.1667 32.7 26.45 32.7C25.8667 34.6667 25.0833 36.55 23.6833 38.2333C27.0333 37.2833 29.6333 35.4833 31.65 32.7ZM31.6333 16.6667C29.6333 13.85 27.0333 12.0667 23.7833 11.1833C25.1167 12.8 25.85 14.7167 26.45 16.6667C28.1833 16.6667 29.8667 16.6667 31.6333 16.6667ZM8.70002 32.6833C10.6833 35.5 13.3 37.25 16.5333 38.1667C15.1833 36.5667 14.5 34.6333 13.8833 32.6833C12.1833 32.6833 10.4833 32.6833 8.70002 32.6833ZM18.1833 9.28333C19.5333 9.28333 20.85 9.28333 22.15 9.28333C22.15 8.83333 22.15 8.43333 22.15 8.01667C20.8167 8.01667 19.5 8.01667 18.1833 8.01667C18.1833 8.45 18.1833 8.86667 18.1833 9.28333Z" fill="#0C8CD5"/>
<path d="M32.8333 13.3332C32.4833 13.3332 32.2333 13.0666 32.1833 12.6999C32.0333 11.3832 31.4666 10.8166 30.1499 10.6666C29.7833 10.6166 29.5166 10.3666 29.5166 10.0166C29.4999 9.6499 29.7666 9.38324 30.1666 9.33324C31.4666 9.1999 32.0333 8.61657 32.1999 7.28324C32.2499 6.91657 32.5166 6.66657 32.8666 6.6499C33.2166 6.6499 33.4833 6.8999 33.5333 7.26657C33.7166 8.6499 34.2166 9.13324 35.5833 9.31657C35.9499 9.36657 36.1999 9.63324 36.1999 9.98324C36.1999 10.3332 35.9499 10.5999 35.5833 10.6499C34.2333 10.8166 33.7333 11.3166 33.5333 12.7166C33.4666 13.0832 33.1833 13.3332 32.8333 13.3332ZM32.7999 10.5166C33.0333 10.3332 33.2499 10.1499 33.4333 10.0166C33.2166 9.7999 33.0166 9.5999 32.8833 9.4499C32.6999 9.63324 32.4833 9.81657 32.2999 9.9999C32.4666 10.1832 32.6499 10.3832 32.7999 10.5166Z" fill="#0C8CD5"/>
<path d="M6.81663 36.0002C6.8333 36.3669 6.56663 36.6335 6.16663 36.6835C4.86663 36.8335 4.29997 37.4002 4.1333 38.7335C4.0833 39.1002 3.81663 39.3502 3.4833 39.3669C3.11663 39.3669 2.84997 39.1169 2.81663 38.7169C2.6833 37.4502 2.06663 36.8335 0.799967 36.7002C0.399967 36.6669 0.133301 36.4002 0.133301 36.0335C0.133301 35.6669 0.399967 35.4002 0.799967 35.3669C2.04997 35.2502 2.66663 34.6169 2.79997 33.3502C2.84997 32.9502 3.11663 32.7002 3.4833 32.7002C3.8333 32.7002 4.1333 32.9669 4.1333 33.3335C4.11663 34.4169 5.04997 35.3835 6.16663 35.3835C6.54997 35.3669 6.81663 35.6502 6.81663 36.0002ZM4.04997 36.0335C3.84997 35.8502 3.64997 35.6502 3.4833 35.4835C3.29997 35.6502 3.09997 35.8502 2.9333 36.0335C3.11663 36.2169 3.31663 36.4169 3.51663 36.6002C3.66663 36.4169 3.86663 36.2169 4.04997 36.0335Z" fill="#0C8CD5"/>
<path d="M11.4832 9.31689C11.4832 9.75023 11.4832 10.1669 11.4832 10.6336C11.0499 10.6336 10.6332 10.6336 10.1666 10.6336C10.1666 10.2002 10.1666 9.76689 10.1666 9.31689L10.1499 9.33356C10.5999 9.33356 11.0499 9.33356 11.4832 9.31689Z" fill="#0C8CD5"/>
<path d="M4.81665 4.65016C4.81665 4.21683 4.81665 3.80016 4.81665 3.3335C5.24998 3.3335 5.66665 3.3335 6.13332 3.3335C6.13332 3.76683 6.13332 4.20016 6.13332 4.65016L6.14999 4.6335C5.71665 4.65016 5.26665 4.65016 4.81665 4.65016Z" fill="#0C8CD5"/>
<path d="M4.81667 5.98324C4.38333 5.98324 3.96667 5.98324 3.5 5.98324C3.5 5.5499 3.5 5.13324 3.5 4.66657C3.93333 4.66657 4.36667 4.66657 4.81667 4.66657L4.8 4.6499C4.81666 5.0999 4.81667 5.5499 4.81667 5.98324Z" fill="#0C8CD5"/>
<path d="M6.1499 4.6499C6.58324 4.6499 6.9999 4.6499 7.46657 4.6499C7.46657 5.08324 7.46657 5.4999 7.46657 5.96657C7.03324 5.96657 6.5999 5.96657 6.1499 5.96657L6.16657 5.98324C6.16657 5.5499 6.16657 5.0999 6.1499 4.6499Z" fill="#0C8CD5"/>
<path d="M6.14999 5.9834C6.14999 6.41673 6.14999 6.8334 6.14999 7.30006C5.71665 7.30006 5.29998 7.30006 4.83332 7.30006C4.83332 6.86673 4.83332 6.4334 4.83332 5.9834L4.81665 6.00006C5.26665 5.9834 5.71665 5.9834 6.14999 5.9834Z" fill="#0C8CD5"/>
<path d="M10.1667 7.99977C10.1667 7.56644 10.1667 7.14977 10.1667 6.68311C10.6001 6.68311 11.0167 6.68311 11.4834 6.68311C11.4834 7.11644 11.4834 7.54977 11.4834 7.99977L11.5001 7.98311C11.0501 7.98311 10.6001 7.98311 10.1667 7.99977Z" fill="#0C8CD5"/>
<path d="M10.1665 9.31673C9.73319 9.31673 9.31652 9.31673 8.84985 9.31673C8.84985 8.8834 8.84985 8.46673 8.84985 8.00006C9.28319 8.00006 9.71652 8.00006 10.1665 8.00006L10.1499 7.9834C10.1499 8.4334 10.1499 8.8834 10.1665 9.31673Z" fill="#0C8CD5"/>
<path d="M11.4834 8C11.9167 8 12.3334 8 12.8001 8C12.8001 8.43333 12.8001 8.85 12.8001 9.31667C12.3667 9.31667 11.9334 9.31667 11.4834 9.31667L11.5001 9.33333C11.5001 8.88333 11.5001 8.43333 11.4834 8Z" fill="#0C8CD5"/>
<path d="M24.15 20.65C23.7 20.65 23.3 20.65 22.8667 20.65C22.8667 20.2167 22.8667 19.8167 22.8667 19.3667C23.2834 19.3667 23.7 19.3667 24.15 19.3667C24.15 19.7834 24.15 20.2 24.15 20.65Z" fill="#0C8CD5"/>
<path d="M15.5332 26.7002C15.9665 26.7002 16.3832 26.7002 16.8165 26.7002C16.8165 27.1335 16.8165 27.5502 16.8165 28.0002C16.3999 28.0002 15.9832 28.0002 15.5332 28.0002C15.5332 27.5835 15.5332 27.1502 15.5332 26.7002Z" fill="#0C8CD5"/>
<path d="M17.5166 14.0166C17.9499 14.0166 18.3499 14.0166 18.7999 14.0166C18.7999 14.4333 18.7999 14.8499 18.7999 15.2999C18.3833 15.2999 17.9666 15.2999 17.5166 15.2999C17.5166 14.8833 17.5166 14.4666 17.5166 14.0166Z" fill="#0C8CD5"/>
<path d="M22.8332 34.0498C22.8332 34.4831 22.8332 34.8831 22.8332 35.3165C22.3999 35.3165 21.9832 35.3165 21.5332 35.3165C21.5332 34.8998 21.5332 34.4831 21.5332 34.0498C21.9665 34.0498 22.3999 34.0498 22.8332 34.0498Z" fill="#0C8CD5"/>
<path d="M29.4999 28.7002C29.4999 29.1335 29.4999 29.5502 29.4999 29.9835C29.0832 29.9835 28.6499 29.9835 28.2166 29.9835C28.2166 29.5669 28.2166 29.1502 28.2166 28.7002C28.6332 28.7002 29.0332 28.7002 29.4999 28.7002Z" fill="#0C8CD5"/>
<path d="M10.1833 20.6334C10.1833 20.2001 10.1833 19.7834 10.1833 19.3501C10.6167 19.3501 11.0167 19.3501 11.4667 19.3501C11.4667 19.7668 11.4667 20.1834 11.4667 20.6334C11.05 20.6334 10.6333 20.6334 10.1833 20.6334Z" fill="#0C8CD5"/>
<path d="M30.2166 19.3501C30.6666 19.3501 31.0666 19.3501 31.4999 19.3501C31.4999 19.7834 31.4999 20.1834 31.4999 20.6334C31.0832 20.6334 30.6666 20.6334 30.2166 20.6334C30.2166 20.2334 30.2166 19.8001 30.2166 19.3501Z" fill="#0C8CD5"/>
<path d="M8.83325 30.0001C8.83325 29.5668 8.83325 29.1501 8.83325 28.7168C9.26659 28.7168 9.68325 28.7168 10.1333 28.7168C10.1333 29.1501 10.1333 29.5668 10.1333 30.0001C9.69992 30.0001 9.29992 30.0001 8.83325 30.0001Z" fill="#0C8CD5"/>
</svg>
