<svg width="38" height="40" viewBox="0 0 38 40" fill="none" xmlns="http://www.w3.org/2000/svg">
<path d="M16.2035 29.4577C15.7628 29.1187 15.3391 28.7967 14.9154 28.4746C14.7798 28.5594 14.6781 28.6441 14.5594 28.7289C11.7289 31.034 8.52554 31.5933 5.03401 30.695C4.77978 30.6272 4.44079 30.3391 4.373 30.0848C4.2374 29.6441 4.67808 29.373 5.2374 29.5255C6.98317 30.0001 8.71198 30.0679 10.4577 29.5763C11.695 29.2204 12.8137 28.6272 13.8645 27.7458C13.4916 27.4577 13.1696 27.2035 12.8306 26.9323C12.0679 26.3391 11.9832 25.695 12.5764 24.8984C16.9154 19.1865 21.2374 13.4916 25.5764 7.77973C25.7459 7.54244 25.9154 7.3221 26.1357 7.03397C25.7967 6.77973 25.5086 6.54244 25.2205 6.3221C24.8476 6.05092 24.8137 5.81363 25.2713 5.59329C29.0001 3.76278 32.7289 1.91532 36.4577 0.0848157C36.5933 0.0170191 36.8306 -0.0338284 36.9323 0.0339682C37.034 0.101765 37.051 0.339053 37.0171 0.491595C36.2543 4.55939 35.4916 8.62719 34.7289 12.678C34.6272 13.2374 34.4577 13.2882 33.9832 12.9492C33.695 12.7458 33.4238 12.5255 33.1018 12.2882C32.9493 12.4916 32.8137 12.6441 32.6781 12.8136C28.4238 18.4238 24.1527 24.034 19.8984 29.6441C18.8476 31.034 18.6611 31.0679 17.1188 30.1865C17.0001 30.3391 16.8645 30.5085 16.7289 30.678C14.5086 33.5763 12.3052 36.4916 10.0849 39.3899C9.96622 39.5424 9.86452 39.7797 9.71198 39.8306C9.45774 39.8984 9.11876 39.9492 8.93232 39.8306C8.79672 39.7458 8.79673 39.356 8.83062 39.1187C8.84757 38.9662 9.01707 38.8306 9.11876 38.695C11.3221 35.8136 13.5255 32.9153 15.7289 30.034C15.8984 29.8645 16.034 29.678 16.2035 29.4577ZM35.5594 1.86448C32.6272 3.30516 29.8306 4.69499 26.9493 6.10177C29.2713 7.86448 31.4916 9.54244 33.7967 11.2882C34.373 8.11872 34.9493 5.06787 35.5594 1.86448ZM26.8306 18.5763C26.695 18.5085 26.6611 18.4746 26.6272 18.4746C24.2882 18.3391 21.9323 18.1865 19.5933 18.0679C19.4747 18.0679 19.2882 18.0848 19.2205 18.1696C18.7798 18.695 18.373 19.2543 17.8984 19.8814C20.4069 20.0509 22.7798 20.2035 25.1357 20.3391C25.2882 20.356 25.5086 20.3052 25.5933 20.1865C26.0171 19.678 26.4069 19.1357 26.8306 18.5763ZM15.6781 22.7967C15.7967 22.8814 15.8137 22.8984 15.8306 22.8984C18.2035 23.0509 20.5594 23.1865 22.9323 23.3391C23.051 23.3391 23.2374 23.3052 23.3052 23.2204C23.7289 22.695 24.1357 22.1526 24.6103 21.5255C22.0679 21.373 19.6611 21.2035 17.2544 21.0679C17.1357 21.0679 16.9662 21.1187 16.8984 21.2204C16.4916 21.7119 16.1018 22.2374 15.6781 22.7967ZM13.3221 25.8814C15.8815 26.0509 18.2713 26.2035 20.6611 26.3391C20.7798 26.3391 20.9493 26.3052 21.034 26.2204C21.4577 25.695 21.8645 25.1526 22.2882 24.5933C22.1527 24.5255 22.1188 24.4916 22.0679 24.4916C19.7289 24.356 17.373 24.2035 15.034 24.0848C14.9154 24.0848 14.7289 24.1187 14.6611 24.2035C14.2205 24.7119 13.8306 25.2374 13.3221 25.8814ZM31.4069 12.5763C31.2374 12.5085 31.1866 12.4746 31.1357 12.4746C28.8137 12.3391 26.4747 12.2035 24.1527 12.0679C24.0171 12.0679 23.8137 12.1187 23.7459 12.2035C23.3221 12.7119 22.9323 13.2374 22.4577 13.8645C25.0001 14.017 27.3899 14.1696 29.7967 14.3221C29.9323 14.3221 30.1018 14.2374 30.1866 14.1357C30.5933 13.6611 30.9832 13.1357 31.4069 12.5763ZM29.1696 15.5085C26.6442 15.3391 24.2713 15.1865 21.8984 15.0509C21.7628 15.0509 21.5594 15.0848 21.4747 15.1696C21.051 15.695 20.6442 16.2374 20.2374 16.7797C20.3391 16.8475 20.373 16.8984 20.4069 16.8984C22.7798 17.034 25.1527 17.1865 27.5255 17.3221C27.6611 17.3221 27.8476 17.2543 27.9323 17.1526C28.3221 16.6272 28.712 16.1187 29.1696 15.5085ZM24.7289 10.8814C27.1188 11.034 29.3391 11.1526 31.5594 11.2882C31.5594 11.2374 31.5764 11.1865 31.5764 11.1357C30.1018 10.017 28.6272 8.89838 27.1018 7.74583C26.3221 8.77973 25.5764 9.77973 24.7289 10.8814ZM20.0679 27.5085C18.4408 27.4238 16.9832 27.3391 15.5255 27.2543C15.5255 27.3052 15.5086 27.356 15.5086 27.4069C16.4747 28.1526 17.4577 28.8814 18.4577 29.6441C18.9832 28.9153 19.4747 28.2713 20.0679 27.5085Z" fill="#0C8CD5"/>
<path d="M1.74577 33.78C1.25424 33.7291 1.01695 33.2376 1.30509 32.8647C1.62712 32.4749 1.98306 32.102 2.37289 31.7969C2.52543 31.6783 2.88136 31.7122 3.05085 31.8139C3.18645 31.8986 3.32204 32.3054 3.25424 32.4071C2.84746 32.8817 2.38984 33.3223 1.93221 33.763C1.89831 33.7969 1.79662 33.78 1.74577 33.78Z" fill="#0C8CD5"/>
<path d="M3.30515 27.9325C3.2543 28.0172 3.16956 28.2376 3.01702 28.3223C2.84752 28.4071 2.54244 28.424 2.42379 28.3223C2.01701 27.9664 1.61023 27.5935 1.27125 27.1698C1.00006 26.8138 1.33905 26.3054 1.77973 26.3054C2.15261 26.2884 3.2882 27.424 3.30515 27.9325Z" fill="#0C8CD5"/>
<path d="M6.45764 32.339C6.64408 32.0848 6.72883 31.8475 6.88137 31.7797C7.06781 31.7119 7.3729 31.7119 7.50849 31.8136C7.88137 32.1017 8.2373 32.4237 8.49154 32.7966C8.61018 32.9661 8.57629 33.4068 8.44069 33.5424C8.3051 33.678 7.84747 33.6949 7.69493 33.5763C7.25425 33.2373 6.88137 32.7797 6.45764 32.339Z" fill="#0C8CD5"/>
<path d="M8.16961 26.356C8.25435 26.4068 8.47469 26.4916 8.55944 26.661C8.64418 26.8305 8.64418 27.1356 8.54249 27.2543C8.22045 27.6441 7.84757 28.017 7.45774 28.3221C7.3391 28.4238 7.01706 28.4068 6.86452 28.3051C6.71198 28.2204 6.61029 27.9661 6.59334 27.7797C6.57639 27.4068 7.66113 26.356 8.16961 26.356Z" fill="#0C8CD5"/>
<path d="M4.37293 26.2541C4.37293 26.0168 4.30513 25.7456 4.38988 25.5592C4.49157 25.3558 4.74581 25.1016 4.9492 25.1016C5.13564 25.1016 5.47462 25.3558 5.50852 25.5422C5.59327 26.0168 5.59327 26.5253 5.50852 26.9999C5.47462 27.1863 5.13564 27.4914 4.96615 27.4575C4.74581 27.4236 4.50852 27.1524 4.38988 26.9321C4.28818 26.7456 4.35598 26.4744 4.37293 26.2541C4.35598 26.2541 4.35598 26.2541 4.37293 26.2541Z" fill="#0C8CD5"/>
<path d="M5.52544 33.8645C5.52544 34.0849 5.59324 34.3391 5.5085 34.5086C5.38985 34.7289 5.13561 35.0171 4.93222 35.0171C4.74578 35.0171 4.42375 34.712 4.38985 34.4916C4.30511 34.051 4.30511 33.5764 4.38985 33.1527C4.42375 32.9493 4.76273 32.6611 4.94917 32.6611C5.13561 32.6611 5.38985 32.9493 5.5085 33.1866C5.59324 33.3561 5.52544 33.6272 5.52544 33.8645Z" fill="#0C8CD5"/>
<path d="M1.16955 30.6274C0.949212 30.6274 0.694975 30.6952 0.542432 30.6104C0.322093 30.4918 -0.0168903 30.2206 0.0170081 30.0681C0.0509064 29.8308 0.322093 29.5257 0.559381 29.4748C0.966161 29.3731 1.42379 29.3901 1.83057 29.4748C2.05091 29.5257 2.30514 29.8138 2.37294 30.0342C2.45769 30.3901 2.1865 30.6104 1.83057 30.6443C1.59328 30.6443 1.37294 30.6274 1.16955 30.6274Z" fill="#0C8CD5"/>
</svg>
