<svg width="13" height="15" viewBox="0 0 13 15" fill="none" xmlns="http://www.w3.org/2000/svg">
<path fill-rule="evenodd" clip-rule="evenodd" d="M1.09562 2.62971C2.24778 0.95947 4.07666 0 6.10731 0C8.13796 0 9.96685 0.95947 11.119 2.62971C12.2646 4.29021 12.5306 6.39443 11.8268 8.25908C11.6365 8.77365 11.3342 9.2714 10.9337 9.73641L6.68888 14.7307C6.54379 14.9015 6.33117 15 6.10731 15C5.88346 15 5.67089 14.9015 5.52583 14.7308L1.28035 9.73581C0.881433 9.27313 0.57818 8.77413 0.386435 8.25588C-0.315959 6.39438 -0.0499403 4.29016 1.09562 2.62971ZM6.10731 1.53002C4.58282 1.53002 3.21611 2.2471 2.35211 3.49968C1.4898 4.74974 1.29133 6.32733 1.81665 7.71895L1.81729 7.72064C1.94374 8.06283 2.15064 8.40454 2.43863 8.7388L2.43976 8.74011L6.10732 13.055L9.7748 8.74027L9.77597 8.73898C10.0643 8.40425 10.2711 8.06251 10.3962 7.72403L10.3968 7.72231C10.9235 6.32725 10.7248 4.74969 9.86236 3.4997C8.99833 2.24709 7.63177 1.53002 6.10731 1.53002ZM3.01793 6.09987C3.01793 4.39328 4.40367 3.00546 6.10727 3.00546C7.81087 3.00546 9.19661 4.39346 9.19661 6.09987C9.19661 7.80644 7.81104 9.19428 6.10727 9.19428C4.4035 9.19428 3.01793 7.80644 3.01793 6.09987ZM6.10727 4.53544C5.24632 4.53544 4.54544 5.23748 4.54544 6.09984C4.54544 6.9622 5.24632 7.66424 6.10727 7.66424C6.96822 7.66424 7.6691 6.9622 7.6691 6.09984C7.6691 5.23748 6.96822 4.53544 6.10727 4.53544Z" fill="#696969"/>
</svg>
