<svg width="65" height="87" viewBox="0 0 65 87" fill="none" xmlns="http://www.w3.org/2000/svg">
<path d="M63.9102 29.3882C64.0181 29.5502 64.1801 29.7121 64.2341 29.8741L63.9102 29.3882Z" fill="black"/>
<path d="M64.5052 33.7618C64.3972 34.9497 64.3972 36.0835 64.2353 37.1634C63.8573 39.4312 63.5333 41.8069 62.8314 43.9667C62.0755 46.3964 61.1036 48.7722 59.9697 51.0399C57.486 56.2233 54.1924 60.8668 50.6827 65.3484C45.9312 71.3957 41.1258 77.3351 36.3203 83.3284C35.4564 84.4083 34.5925 85.4882 33.7286 86.5141C33.6206 86.676 33.4586 86.838 33.1346 86.946C33.1346 85.4882 33.1346 84.0843 33.1346 82.6265C33.0806 77.0111 33.1886 71.4497 33.8366 65.8883C34.0525 63.8365 34.1605 61.6768 35.2944 59.8949C35.9963 58.7611 37.0762 57.7892 38.1021 56.8713C40.5858 54.6575 43.1775 52.5517 45.6613 50.284C47.821 48.3402 49.5489 46.0185 50.7367 43.3187C52.1946 40.0251 52.5185 36.5695 52.1946 33.0059C51.9246 30.3601 51.3307 27.8224 50.5207 25.3387C50.0348 23.9348 49.4949 22.531 48.9549 21.1272C48.9009 20.9652 48.6849 20.8032 48.469 20.7492C45.1213 19.8853 41.7737 19.1294 38.3181 18.8054C36.4823 18.6434 34.6465 18.3735 32.8647 18.3735C30.7049 18.3735 28.5451 18.5354 26.4394 18.7514C24.2796 19.0214 22.0658 19.3993 19.9061 19.7773C18.7182 19.9933 17.5303 20.3712 16.3425 20.5872C15.6405 20.6952 15.4246 21.1272 15.2626 21.6671C14.7766 23.0169 14.2907 24.3128 13.8047 25.6627C12.9948 28.0384 12.4549 30.5221 12.1849 33.0599C11.483 39.3772 13.3188 44.8846 17.8003 49.3661C19.9061 51.4719 22.2278 53.3077 24.4416 55.3054C25.7914 56.5473 27.1413 57.7892 28.4911 59.085C29.409 59.9489 29.679 61.0828 29.895 62.2167C30.2729 63.9445 30.5429 65.7263 30.7049 67.4541C31.1908 72.5296 31.2448 77.605 31.2448 82.7345C31.2448 84.1383 31.2448 85.5422 31.2448 86.946C31.1908 86.946 31.0829 87 31.0289 87C30.9209 86.892 30.8129 86.73 30.7049 86.622C25.8454 80.6287 21.0399 74.6353 16.2345 68.642C12.5629 63.9985 8.99926 59.247 6.02958 54.1176C4.0318 50.6619 2.35798 47.0443 1.33209 43.2108C-0.0177631 38.2433 -0.341725 33.2218 0.360198 28.1464C0.954134 23.7189 2.46597 19.5613 4.73372 15.7277C7.81139 10.5443 12.0229 6.49474 17.3684 3.68705C19.9061 2.33719 22.6058 1.3113 25.4135 0.717368C28.5991 0.0154442 31.8388 -0.146538 35.1324 0.123432C39.7759 0.501391 44.0415 1.90524 48.091 4.17299C52.2486 6.54873 55.6502 9.73439 58.4039 13.622C60.1317 16.1057 61.5895 18.7514 62.5074 21.6131C63.2094 23.7189 63.6413 25.8786 64.1813 28.0384C64.2893 28.0924 64.5592 33.3838 64.5052 33.7618Z" fill="#272727"/>
<path d="M50.5746 34.8415C50.6826 37.0552 50.3586 39.161 49.7107 41.2128C48.5768 44.7224 46.4171 47.5301 43.7174 49.9058C41.1796 52.1196 38.5339 54.2793 35.8882 56.3851C34.8083 57.249 33.5125 57.897 32.0546 57.789C30.8668 57.735 29.8949 57.249 28.977 56.5471C25.1974 53.6854 21.4178 50.7697 18.2861 47.1521C16.0724 44.6144 14.6685 41.6447 14.1826 38.2431C14.0746 37.4872 14.0746 36.6773 14.0206 35.9213C13.9666 35.4894 14.2366 35.3274 14.5605 35.2734C15.6944 34.9494 16.8283 34.5715 18.0161 34.4635C20.0679 34.2475 22.1197 34.0315 24.2255 34.0855C26.2773 34.1395 28.275 34.4635 30.3268 34.7335C32.5946 35.0034 34.8083 35.2734 37.0761 35.6514C39.3978 36.0293 41.7736 36.0293 44.0953 35.9753C46.0931 35.9213 48.0909 35.5434 49.9807 34.8955C50.0887 34.8415 50.2506 34.7875 50.3586 34.7875C50.4126 34.8415 50.4666 34.8415 50.5746 34.8415Z" fill="url(#paint0_linear)"/>
<defs>
<linearGradient id="paint0_linear" x1="32.3044" y1="34.0771" x2="32.3044" y2="57.8007" gradientUnits="userSpaceOnUse">
<stop stop-color="#DA0034"/>
<stop offset="1" stop-color="#80001F"/>
</linearGradient>
</defs>
</svg>
