<svg width="23" height="40" viewBox="0 0 23 40" fill="none" xmlns="http://www.w3.org/2000/svg">
<path d="M20.576 17.216C20.576 19.072 20.576 20.848 20.576 22.608C20.576 23.68 20.56 24.736 20.592 25.808C20.592 25.968 20.672 26.16 20.8 26.256C21.344 26.72 21.344 27.568 21.184 28.144C21.136 28.336 20.8 28.528 20.56 28.56C20.144 28.624 19.712 28.592 19.28 28.576C18.864 28.56 18.624 28.304 18.608 27.888C18.576 27.232 18.56 26.576 19.2 26.128C19.264 26.08 19.264 25.936 19.264 25.824C19.264 22.736 19.264 19.648 19.264 16.576C19.264 16.432 19.136 16.256 19.024 16.16C18.72 15.936 18.368 15.552 18.064 15.584C17.76 15.616 17.488 16.048 17.216 16.32C16.736 16.8 16.272 17.296 15.776 17.744C15.52 17.968 15.536 18.128 15.728 18.4C16.416 19.392 17.072 20.4 17.744 21.392C17.92 21.648 18.064 21.92 17.888 22.24C17.712 22.576 17.408 22.608 17.072 22.608C15.392 22.608 13.728 22.608 11.984 22.608C11.984 22.752 11.984 22.88 11.984 23.008C11.984 25.504 11.984 28.016 11.984 30.512C11.984 30.784 12.064 30.928 12.288 31.072C14.544 32.56 16.8 34.08 19.056 35.568C19.648 35.952 20.16 36.336 19.936 37.136C20.624 37.44 20.816 37.968 20.576 38.848C20.4 39.504 19.808 39.92 19.136 39.856C18.496 39.792 18 39.264 17.952 38.608C17.936 38.384 17.952 38.16 17.952 37.952C17.952 37.616 18.096 37.36 18.416 37.248C18.704 37.152 18.688 36.976 18.496 36.832C18.032 36.496 17.536 36.176 17.04 35.872C16.96 35.824 16.784 35.856 16.656 35.904C15.024 36.512 13.392 37.12 11.776 37.744C11.44 37.872 11.152 37.872 10.816 37.744C9.2 37.12 7.584 36.528 5.968 35.92C5.744 35.84 5.568 35.824 5.36 35.968C4.976 36.24 4.576 36.496 4.192 36.752C3.888 36.96 3.904 37.072 4.208 37.248C4.368 37.344 4.592 37.504 4.592 37.648C4.592 38.16 4.608 38.704 4.448 39.184C4.272 39.712 3.6 39.952 3.056 39.824C2.496 39.696 2.064 39.248 2.016 38.672C1.984 38.384 1.936 38.064 2.032 37.808C2.128 37.536 2.384 37.312 2.56 37.072C2.592 37.088 2.64 37.12 2.672 37.136C2.672 37.056 2.688 36.976 2.672 36.896C2.608 36.384 2.832 36.048 3.264 35.776C5.616 34.24 7.936 32.672 10.272 31.12C10.544 30.944 10.656 30.752 10.64 30.416C10.624 29.152 10.64 27.872 10.64 26.592C10.192 26.592 9.776 26.592 9.376 26.592C9.072 27.232 8.496 27.44 7.648 27.184C6.992 26.992 6.592 26.384 6.672 25.728C6.768 25.072 7.312 24.592 7.984 24.576C8.128 24.576 8.256 24.576 8.4 24.576C9.008 24.576 9.12 24.656 9.36 25.232C9.776 25.232 10.176 25.232 10.624 25.232C10.624 24.352 10.624 23.488 10.624 22.592C10.464 22.592 10.32 22.592 10.16 22.592C8.592 22.592 7.04 22.592 5.472 22.592C5.152 22.592 4.848 22.528 4.768 22.208C4.704 21.968 4.752 21.648 4.864 21.44C5.536 20.368 6.24 19.328 6.944 18.288C7.088 18.08 7.088 17.952 6.896 17.76C6.192 17.072 5.488 16.384 4.816 15.68C4.64 15.488 4.512 15.488 4.288 15.632C3.264 16.336 2.224 17.008 1.184 17.712C0.928 17.888 0.688001 18 0.368001 17.84C0.0480005 17.68 0 17.392 0 17.072C0 13.2 0 9.328 0 5.456C0 5.152 0.0640007 4.88 0.352001 4.72C0.656001 4.56 0.912001 4.656 1.168 4.832C2.208 5.52 3.248 6.208 4.272 6.912C4.496 7.072 4.64 7.056 4.832 6.864C5.52 6.16 6.208 5.456 6.912 4.784C7.088 4.608 7.088 4.496 6.96 4.304C6.256 3.28 5.584 2.24 4.88 1.2C4.704 0.928 4.576 0.672 4.752 0.352C4.928 0.032 5.216 0 5.536 0C9.392 0 13.248 0 17.12 0C17.44 0 17.728 0.064 17.888 0.368C18.048 0.672 17.92 0.928 17.76 1.184C17.072 2.224 16.384 3.264 15.68 4.288C15.536 4.512 15.552 4.624 15.728 4.816C16.432 5.504 17.136 6.192 17.808 6.896C18 7.088 18.112 7.088 18.336 6.944C19.36 6.24 20.4 5.568 21.44 4.864C21.696 4.688 21.952 4.576 22.256 4.736C22.576 4.896 22.624 5.184 22.624 5.504C22.624 9.36 22.624 13.216 22.624 17.088C22.624 17.408 22.576 17.696 22.272 17.872C21.952 18.048 21.696 17.92 21.424 17.728C21.136 17.584 20.88 17.424 20.576 17.216ZM11.28 5.344C10.384 5.344 9.488 5.328 8.576 5.36C8.368 5.36 8.128 5.472 7.968 5.616C7.136 6.416 6.336 7.232 5.536 8.048C5.408 8.192 5.296 8.416 5.296 8.608C5.28 10.416 5.28 12.224 5.296 14.048C5.296 14.224 5.392 14.448 5.52 14.576C6.336 15.424 7.168 16.256 8.016 17.072C8.144 17.2 8.368 17.296 8.544 17.296C10.352 17.312 12.16 17.312 13.984 17.296C14.176 17.296 14.416 17.184 14.544 17.056C15.376 16.256 16.208 15.424 17.008 14.592C17.136 14.464 17.232 14.24 17.232 14.064C17.248 12.24 17.248 10.416 17.232 8.592C17.232 8.416 17.152 8.208 17.024 8.096C16.192 7.248 15.36 6.4 14.496 5.568C14.368 5.456 14.16 5.376 14 5.36C13.104 5.344 12.192 5.344 11.28 5.344ZM6.544 1.376C7.104 2.208 7.616 2.976 8.112 3.744C8.256 3.952 8.4 4.032 8.656 4.016C10.048 4 11.456 3.92 12.848 4.032C13.92 4.112 14.576 3.792 15.04 2.848C15.28 2.336 15.664 1.888 16.016 1.36C12.832 1.376 9.728 1.376 6.544 1.376ZM1.344 6.608C1.344 9.776 1.344 12.88 1.344 16.048C2.208 15.472 3.04 14.928 3.856 14.368C3.936 14.32 3.968 14.16 3.968 14.048C3.968 12.256 3.984 10.448 3.968 8.656C3.968 8.528 3.904 8.352 3.808 8.272C3.008 7.712 2.192 7.184 1.344 6.608ZM21.232 6.592C20.416 7.136 19.664 7.664 18.896 8.144C18.656 8.304 18.576 8.48 18.592 8.752C18.608 10.256 18.64 11.776 18.576 13.28C18.544 14.032 18.72 14.512 19.408 14.864C19.936 15.12 20.4 15.504 20.896 15.84C20.992 15.904 21.104 15.952 21.232 16.032C21.232 12.88 21.232 9.776 21.232 6.592ZM6.56 21.264C9.728 21.264 12.832 21.264 15.984 21.264C15.408 20.4 14.88 19.584 14.32 18.784C14.256 18.704 14.096 18.656 13.968 18.656C12.176 18.64 10.368 18.64 8.576 18.656C8.448 18.656 8.288 18.704 8.224 18.784C7.664 19.584 7.136 20.4 6.56 21.264ZM10.576 36.256C10.576 34.992 10.576 33.776 10.576 32.512C9.376 33.312 8.208 34.096 6.976 34.912C8.24 35.376 9.392 35.808 10.576 36.256ZM15.568 34.912C14.32 34.08 13.168 33.312 11.968 32.512C11.968 33.792 11.968 35.008 11.968 36.272C13.152 35.808 14.304 35.376 15.568 34.912Z" fill="#0C8CD5"/>
<path d="M6.62402 11.2959C6.64002 8.73587 8.72002 6.67188 11.296 6.67188C13.872 6.67188 15.952 8.78387 15.92 11.3759C15.904 13.9359 13.808 15.9839 11.232 15.9839C8.68802 15.9679 6.62402 13.8719 6.62402 11.2959ZM14.592 11.3439C14.592 9.50387 13.12 8.01587 11.296 7.99987C9.45602 7.99987 7.96802 9.47187 7.95202 11.2959C7.95202 13.1359 9.42402 14.6239 11.248 14.6399C13.088 14.6559 14.592 13.1679 14.592 11.3439Z" fill="#0C8CD5"/>
<path d="M13.264 11.3278C13.264 12.4318 12.352 13.3278 11.248 13.3118C10.16 13.2958 9.28003 12.3998 9.28003 11.3118C9.28003 10.2078 10.192 9.31185 11.296 9.32785C12.384 9.34385 13.264 10.2398 13.264 11.3278ZM11.248 11.9838C11.6 11.9998 11.92 11.7278 11.936 11.3598C11.952 11.0078 11.68 10.6878 11.328 10.6558C10.96 10.6238 10.624 10.9278 10.608 11.2958C10.608 11.6638 10.88 11.9678 11.248 11.9838Z" fill="#0C8CD5"/>
</svg>
