<svg width="40" height="40" viewBox="0 0 40 40" fill="none" xmlns="http://www.w3.org/2000/svg">
<path d="M19.966 39.9149C13.6511 39.9149 7.35319 39.9149 1.0383 39.9149C0.170213 39.9149 0 39.7447 0 38.8936C0 33.0043 0 27.1149 0 21.2255C0 18.5532 2.04255 16.5277 4.69787 16.5277C6.6383 16.5277 8.5617 16.5277 10.5021 16.5277C12.4936 16.5277 13.7532 15.2681 13.7532 13.2766C13.7872 6.96172 18.4851 1.31065 24.6128 0.204267C31.0979 -0.970201 37.5489 3.08086 39.3872 9.44682C39.7447 10.6724 39.9149 11.9149 39.9149 13.1745C39.9149 21.7532 39.9149 30.3149 39.9149 38.8936C39.9149 39.7447 39.7277 39.9149 38.8766 39.9149C32.5957 39.9149 26.2809 39.9149 19.966 39.9149ZM38.5532 22.0085C38.5532 21.8043 38.5532 21.6511 38.5532 21.4979C38.5532 18.7404 38.5702 16 38.5532 13.2426C38.5532 12.5447 38.5021 11.8298 38.4 11.1489C37.3787 4.56171 30.6383 0.0851184 24.1532 1.70214C18.8426 3.01278 15.2 7.71065 15.166 13.2426C15.1489 15.8809 13.1064 17.9064 10.4511 17.9064C8.51064 17.9064 6.58723 17.9064 4.64681 17.9064C4.28936 17.9064 3.93191 17.9404 3.59149 18.0426C2.00851 18.5021 1.14043 19.9319 1.46383 22.0085C13.7872 22.0085 26.1447 22.0085 38.5532 22.0085ZM38.5362 23.4383C26.1277 23.4383 13.7702 23.4383 1.41277 23.4383C1.41277 24.817 1.41277 26.1447 1.41277 27.5064C13.7872 27.5064 26.1617 27.5064 38.5362 27.5064C38.5362 26.1447 38.5362 24.8 38.5362 23.4383ZM4.13617 28.9362C3.18298 28.9362 2.29787 28.9362 1.41277 28.9362C1.41277 32.1362 1.41277 35.3362 1.41277 38.5192C2.79149 38.5192 4.13617 38.5192 5.48085 38.5192C5.48085 37.1404 5.48085 35.7787 5.48085 34.417C5.31064 34.417 5.15745 34.417 5.02128 34.417C4.37447 34.417 4.13617 34.1787 4.13617 33.549C4.13617 33.1234 4.13617 32.6979 4.13617 32.2553C4.13617 31.149 4.13617 30.0596 4.13617 28.9362ZM12.4255 34.4341C12.4255 35.8298 12.4255 37.1745 12.4255 38.5192C13.8043 38.5192 15.1489 38.5192 16.4936 38.5192C16.4936 35.3192 16.4936 32.1362 16.4936 28.9362C15.5745 28.9362 14.6894 28.9362 13.7702 28.9362C13.7702 30.383 13.7362 31.7958 13.7872 33.2085C13.8213 34.2298 13.5319 34.4851 12.6298 34.417C12.5617 34.417 12.5106 34.4341 12.4255 34.4341ZM22.0085 38.5362C22.0085 37.1404 22.0085 35.8128 22.0085 34.417C21.8383 34.417 21.6851 34.417 21.5319 34.417C20.8851 34.417 20.6638 34.1787 20.6638 33.5319C20.6638 32.9021 20.6638 32.2724 20.6638 31.6426C20.6638 30.7404 20.6638 29.8383 20.6638 28.9362C19.7277 28.9362 18.8426 28.9362 17.9404 28.9362C17.9404 32.1532 17.9404 35.3362 17.9404 38.5192C19.3021 38.5362 20.6468 38.5362 22.0085 38.5362ZM38.5191 38.5192C38.5191 35.3021 38.5191 32.1192 38.5191 28.9362C37.6 28.9362 36.6979 28.9362 35.7957 28.9362C35.7957 29.0724 35.7957 29.1745 35.7957 29.2596C35.7957 30.6553 35.7957 32.0681 35.7957 33.4638C35.7957 34.1787 35.5745 34.4 34.8766 34.4C34.7234 34.4 34.5702 34.4 34.434 34.4C34.434 35.8128 34.434 37.1575 34.434 38.5021C35.8128 38.5192 37.1574 38.5192 38.5191 38.5192ZM9.65106 28.9362C9.15745 28.9362 8.73192 28.9362 8.27234 28.9362C8.27234 29.1064 8.27234 29.2426 8.27234 29.3787C8.27234 30.7234 8.27234 32.0681 8.27234 33.4128C8.27234 34.2128 8.08511 34.4 7.30213 34.417C7.18298 34.417 7.04681 34.4341 6.92766 34.4341C6.92766 35.8128 6.92766 37.1575 6.92766 38.5192C8.30638 38.5192 9.65106 38.5192 10.9957 38.5192C10.9957 37.1404 10.9957 35.7787 10.9957 34.417C10.8255 34.417 10.6723 34.417 10.5362 34.417C9.88936 34.417 9.66809 34.1787 9.65106 33.5319C9.65106 32.9702 9.65106 32.4085 9.65106 31.8638C9.65106 30.8936 9.65106 29.9234 9.65106 28.9362ZM23.4213 38.5192C24.8 38.5192 26.1617 38.5192 27.5064 38.5192C27.5064 37.1404 27.5064 35.7787 27.5064 34.417C27.3872 34.417 27.3021 34.417 27.217 34.417C26.3319 34.417 26.1617 34.2468 26.1617 33.3787C26.1617 32.0511 26.1617 30.7234 26.1617 29.3787C26.1617 29.2255 26.1617 29.0724 26.1617 28.9362C25.6681 28.9362 25.2426 28.9362 24.783 28.9362C24.783 29.0724 24.783 29.1745 24.783 29.2936C24.783 30.7234 24.783 32.1532 24.783 33.583C24.783 34.1617 24.5277 34.4 23.9489 34.417C23.7787 34.417 23.6085 34.417 23.4383 34.417C23.4213 35.8128 23.4213 37.1404 23.4213 38.5192ZM33.0213 38.5362C33.0213 37.1404 33.0213 35.7958 33.0213 34.417C32.8851 34.417 32.766 34.417 32.6468 34.417C31.8638 34.417 31.6766 34.2128 31.6766 33.4298C31.6766 32.0851 31.6766 30.7404 31.6766 29.3958C31.6766 29.2426 31.6766 29.0894 31.6766 28.9532C31.183 28.9532 30.7404 28.9532 30.2979 28.9532C30.2979 29.1064 30.2979 29.2255 30.2979 29.3277C30.2979 30.7575 30.2979 32.1873 30.2979 33.617C30.2979 34.1617 30.0426 34.4 29.5149 34.417C29.3277 34.417 29.1574 34.417 28.9532 34.417C28.9532 35.8128 28.9532 37.1575 28.9532 38.5362C30.2979 38.5362 31.6426 38.5362 33.0213 38.5362ZM6.85958 33.0213C6.85958 31.6426 6.85958 30.2809 6.85958 28.9532C6.4 28.9532 5.95745 28.9532 5.53192 28.9532C5.53192 30.3319 5.53192 31.6766 5.53192 33.0213C5.99149 33.0213 6.41702 33.0213 6.85958 33.0213ZM12.3745 28.9362C11.8979 28.9362 11.4723 28.9362 11.0468 28.9362C11.0468 30.3149 11.0468 31.6596 11.0468 33.0043C11.5064 33.0043 11.9489 33.0043 12.3745 33.0043C12.3745 31.6426 12.3745 30.2979 12.3745 28.9362ZM22.0596 28.9362C22.0596 30.3149 22.0596 31.6766 22.0596 33.0043C22.5192 33.0043 22.9617 33.0043 23.3872 33.0043C23.3872 31.6255 23.3872 30.2809 23.3872 28.9362C22.9447 28.9362 22.5192 28.9362 22.0596 28.9362ZM28.8851 33.0213C28.8851 31.6426 28.8851 30.2809 28.8851 28.9532C28.4255 28.9532 27.983 28.9532 27.5574 28.9532C27.5574 30.3319 27.5574 31.6766 27.5574 33.0213C28 33.0213 28.4255 33.0213 28.8851 33.0213ZM33.0894 28.9192C33.0894 30.2809 33.0894 31.6426 33.0894 33.0043C33.5319 33.0043 33.9745 33.0043 34.4 33.0043C34.4 31.6255 34.4 30.2809 34.4 28.9192C33.9404 28.9192 33.5319 28.9192 33.0894 28.9192Z" fill="#0C8CD5"/>
<path d="M0.0852051 9.44686C0.0852051 7.86388 1.0384 6.53622 2.41712 6.24686C3.18308 6.09367 3.89797 6.29792 4.54478 6.68941C4.73201 6.80856 4.86818 6.8426 5.08946 6.72345C7.50648 5.25962 9.41286 7.18303 9.58308 9.14047C9.66818 10.1447 9.39584 10.9788 8.62988 11.6937C7.59159 12.6809 6.58733 13.7022 5.58308 14.7235C4.97031 15.3362 4.73201 15.3362 4.11925 14.7405C3.06393 13.6681 2.02563 12.6298 0.970311 11.5915C0.323503 10.9447 0.0852051 10.349 0.0852051 9.44686ZM4.8852 13.4979C5.17457 13.1915 5.41286 12.9022 5.6852 12.6298C6.41712 11.8979 7.16605 11.2 7.86393 10.4341C8.51074 9.73622 8.45967 8.59579 7.79584 7.98303C7.13201 7.37026 6.09372 7.45537 5.41286 8.17026C4.98733 8.62984 4.64691 8.62984 4.18733 8.15324C3.54052 7.45537 2.50223 7.37026 1.8384 7.96601C1.19159 8.54473 1.07244 9.68515 1.70223 10.332C2.7235 11.4043 3.77882 12.4086 4.8852 13.4979Z" fill="#0C8CD5"/>
<path d="M8.27244 2.89351C8.22138 1.56585 9.80436 0.17011 11.3363 0.902025C11.6086 1.0382 11.8129 1.02117 12.0852 0.902025C13.0895 0.459472 14.1958 0.816919 14.8086 1.77011C15.3533 2.60415 15.2001 3.81266 14.4682 4.52756C13.7533 5.20841 13.0384 5.88926 12.3235 6.57011C11.8469 7.01266 11.5576 7.01266 11.081 6.55309C10.3831 5.88926 9.68521 5.22543 9.00436 4.5616C8.49372 4.085 8.27244 3.57437 8.27244 2.89351ZM11.7107 5.25947C12.3576 4.64671 12.9703 4.06798 13.549 3.48926C13.8895 3.14883 13.8554 2.6382 13.515 2.29777C13.2427 2.02543 12.749 2.00841 12.4086 2.26373C11.7107 2.80841 11.7107 2.80841 11.0129 2.26373C10.6724 1.99139 10.1448 2.02543 9.87244 2.31479C9.54904 2.65522 9.53202 3.14883 9.85542 3.47224C10.4512 4.06798 11.0639 4.62969 11.7107 5.25947Z" fill="#0C8CD5"/>
</svg>
