<svg width="29" height="40" viewBox="0 0 29 40" fill="none" xmlns="http://www.w3.org/2000/svg">
<path d="M4.80666 19.8685C5.21818 20.6093 5.64616 21.35 6.04122 22.1237C7.91777 25.778 9.08649 29.6628 9.51448 33.7615C9.67909 35.2924 9.66263 36.8397 9.71201 38.387C9.72847 38.8809 9.44863 39.1278 8.92188 39.1442C7.37456 39.1442 5.82723 39.1442 4.24699 39.1442C4.14822 39.7697 3.72024 39.852 3.17703 39.8356C2.48567 39.8191 1.81077 39.8356 1.11941 39.8356C0.296367 39.8356 0.0988357 39.6545 0.0988357 38.8315C0.0988357 32.708 0.0988357 26.5846 0.0988357 20.4611C0.0988357 18.8973 0.0659139 17.3335 0.18114 15.7862C0.444515 12.5928 1.76139 9.82736 3.91777 7.45699C5.49801 5.71213 7.40748 4.42818 9.61324 3.6216C9.66262 3.60514 9.71201 3.57222 9.72847 3.57222C9.72847 3.243 9.69555 2.9467 9.72847 2.65041C9.94246 0.510489 12.1811 -0.608852 14.1235 0.444646C14.3869 0.592794 14.5844 0.592794 14.8478 0.444646C16.7573 -0.592391 18.9795 0.461107 19.2593 2.55164C19.3087 2.88086 19.2593 3.21008 19.2593 3.58868C19.3416 3.6216 19.4569 3.67098 19.5886 3.72037C25.1523 5.84382 28.889 11.2759 28.9054 17.2512C28.9054 24.4611 28.9054 31.671 28.9054 38.8809C28.9054 39.671 28.7079 39.852 27.9178 39.8685C27.21 39.8685 26.4857 39.8685 25.7779 39.8685C25.103 39.8685 25.0042 39.8027 24.7408 39.1772C23.2429 39.1772 21.7449 39.1772 20.247 39.1772C19.5227 39.1772 19.3087 38.9632 19.3087 38.2389C19.21 32.1813 20.6091 26.4858 23.5227 21.1689C23.7532 20.7409 24.0001 20.3294 24.247 19.9179C19.0124 18.8315 16.1976 15.2759 14.5021 10.5023C12.856 15.2101 10.0412 18.7656 4.80666 19.8685ZM4.26345 18.4693C4.34575 18.4693 4.42806 18.4693 4.4939 18.4529C6.91365 18.173 8.85604 17.0208 10.4363 15.2101C12.2305 13.1689 13.2017 10.7492 13.6462 8.0825C13.7285 7.55576 13.103 6.9467 12.5762 7.04547C10.6667 7.40761 8.97127 8.23065 7.55563 9.54753C4.93834 11.9673 4.04945 15.0125 4.26345 18.4693ZM24.8231 18.4858C24.8725 17.1854 24.856 15.9179 24.5268 14.6833C23.4075 10.5681 20.7573 8.04958 16.6091 7.09485C16.3128 7.02901 16.1153 7.06193 15.8684 7.243C15.4569 7.55576 15.3087 7.88497 15.4733 8.3788C15.5227 8.52695 15.5392 8.69156 15.5721 8.83971C16.1976 11.7862 17.4816 14.3706 19.7861 16.3623C21.2182 17.5804 22.8807 18.3212 24.8231 18.4858ZM27.5886 38.4199C27.5886 38.2389 27.5886 38.0578 27.5886 37.8932C27.5886 31.029 27.605 24.1648 27.5721 17.3006C27.5721 16.3788 27.5063 15.4405 27.3087 14.5352C26.2717 9.79444 23.4404 6.58456 18.8972 4.87263C18.782 4.82325 18.5844 4.80678 18.5186 4.87263C18.1729 5.15246 17.8437 5.46522 17.4651 5.8109C17.6462 5.87674 17.7614 5.92613 17.8766 5.95905C19.4569 6.43641 20.8725 7.21008 22.1071 8.31296C24.7737 10.6833 26.2058 13.6298 26.2058 17.2348C26.2058 24.1319 26.2058 31.0125 26.2058 37.9097C26.2058 38.0743 26.2058 38.2389 26.2058 38.4035C26.6997 38.42 27.1112 38.4199 27.5886 38.4199ZM11.5721 5.79444C11.2923 5.53106 11.0124 5.31707 10.7655 5.0537C10.5515 4.82325 10.3375 4.80678 10.0577 4.90555C4.93834 6.74917 1.51447 11.5722 1.49801 17.0372C1.48155 24.0331 1.49801 31.0125 1.49801 38.0084C1.49801 38.1401 1.49801 38.2883 1.49801 38.4199C1.99184 38.4199 2.40336 38.4199 2.86427 38.4199C2.86427 38.2224 2.86427 38.0578 2.86427 37.8932C2.86427 30.8809 2.86427 23.885 2.86427 16.8726C2.86427 16.3953 2.88073 15.9014 2.97949 15.4241C3.68731 11.4899 5.82723 8.57633 9.36633 6.71625C10.0412 6.33765 10.7984 6.1072 11.5721 5.79444ZM4.26345 37.7121C5.64616 37.7121 6.99596 37.7121 8.36221 37.7121C8.39514 32.0331 7.0618 26.7327 4.26345 21.6792C4.26345 27.1113 4.26345 32.3953 4.26345 37.7121ZM24.8067 37.7286C24.8067 32.3953 24.8067 27.0948 24.8067 21.6792C22.0083 26.7492 20.675 32.0496 20.7079 37.7286C22.1071 37.7286 23.4404 37.7286 24.8067 37.7286ZM14.5351 6.61748C15.5721 5.67921 16.5927 4.79032 17.5639 3.85205C18.354 3.09485 17.9589 1.71214 16.889 1.4323C16.2635 1.26769 15.7038 1.38292 15.21 1.8109C14.5844 2.37057 14.4692 2.35411 13.8108 1.79444C13.6791 1.67921 13.5145 1.56399 13.3499 1.49814C12.6256 1.18539 11.8025 1.38292 11.391 1.97551C10.9301 2.63395 10.963 3.35823 11.5062 3.88497C12.5104 4.79032 13.5145 5.67921 14.5351 6.61748Z" fill="#0C8CD5"/>
<path d="M15.2265 34.3211C15.2265 35.7203 15.2265 37.0371 15.2265 38.4363C15.638 38.4363 16.0495 38.4363 16.461 38.4363C16.9713 38.4363 17.2676 38.6997 17.2841 39.1112C17.3005 39.5392 16.9713 39.8026 16.4446 39.8026C15.1771 39.8026 13.8931 39.8026 12.6256 39.8026C12.0989 39.8026 11.7861 39.5227 11.7861 39.0948C11.8026 38.6832 12.0989 38.4363 12.6092 38.4199C13.0042 38.4199 13.3993 38.4199 13.8108 38.4199C13.8108 37.0371 13.8108 35.7038 13.8108 34.3046C13.1359 34.3046 12.461 34.3046 11.7697 34.3046C10.4363 34.3046 10.387 34.2553 10.387 32.9384C10.387 31.3911 10.387 29.8437 10.387 28.3129C10.387 27.6709 10.6174 27.4404 11.2759 27.4404C13.4322 27.4404 15.5886 27.4404 17.745 27.4404C18.387 27.4404 18.6174 27.6709 18.6174 28.3129C18.6174 30.0083 18.6174 31.7203 18.6174 33.4157C18.6174 34.0742 18.387 34.3046 17.7121 34.3046C16.9219 34.3211 16.0989 34.3211 15.2265 34.3211ZM17.2512 32.9219C17.2512 31.5392 17.2512 30.1894 17.2512 28.8561C15.4075 28.8561 13.6133 28.8561 11.8191 28.8561C11.8191 30.2223 11.8191 31.5721 11.8191 32.9219C13.6298 32.9219 15.424 32.9219 17.2512 32.9219Z" fill="#0C8CD5"/>
<path d="M14.5352 31.5723C14.1072 31.5723 13.6792 31.5723 13.2512 31.5723C12.7738 31.5723 12.4775 31.2925 12.4775 30.8974C12.4775 30.4859 12.7738 30.2061 13.2347 30.2061C14.1072 30.2061 14.9796 30.2061 15.852 30.2061C16.3129 30.2061 16.6092 30.5024 16.6092 30.8974C16.6092 31.2925 16.2965 31.5723 15.8356 31.5723C15.3911 31.5723 14.9631 31.5723 14.5352 31.5723Z" fill="#0C8CD5"/>
</svg>
