<svg width="27" height="27" viewBox="0 0 27 27" fill="none" xmlns="http://www.w3.org/2000/svg">
<path d="M21.1375 25.9158C19.5552 25.8947 18.5004 25.5571 17.4772 25.1035C15.6523 24.2913 14.0278 23.1521 12.4983 21.8862C9.40756 19.3335 6.60165 16.5065 4.16494 13.3103C3.01515 11.8018 2.01304 10.209 1.41178 8.39467C1.08477 7.39256 0.915998 6.3799 1.16916 5.33559C1.29575 4.81872 1.53836 4.35458 1.90756 3.97483C2.62486 3.25753 3.33161 2.52969 4.05946 1.82294C5.13541 0.778632 6.81262 0.884117 7.74089 2.06555C8.60587 3.15205 9.4603 4.25964 10.3042 5.35669C11.0531 6.3377 11.0426 7.51914 10.2831 8.4896C10.1143 8.71112 9.94553 8.92209 9.77676 9.13306C9.24933 9.81872 9.29152 10.6099 9.90334 11.2322C10.7472 12.0761 11.5911 12.92 12.435 13.7639C13.532 14.8609 14.6185 15.9474 15.7156 17.0445C16.3907 17.7196 17.1818 17.7618 17.9308 17.171C18.1312 17.0128 18.3316 16.8546 18.5426 16.6964C19.4709 15.9791 20.7261 15.9791 21.6438 16.6858C22.7409 17.5297 23.8274 18.3736 24.9139 19.228C26.127 20.1774 26.2325 21.8651 25.1565 22.9622C24.5447 23.5845 23.9012 24.1858 23.3 24.8293C22.5827 25.5993 21.7177 25.9263 21.1375 25.9158ZM2.0025 6.36935C1.97085 6.36935 1.94975 6.3799 1.91811 6.3799C2.06579 7.00226 2.17127 7.63517 2.37169 8.24699C2.90967 9.85036 3.81684 11.2639 4.81895 12.6035C7.20292 15.7681 9.97718 18.5634 13.0152 21.0845C14.4603 22.2871 15.9898 23.363 17.6987 24.1542C18.743 24.6394 19.8084 25.0086 20.9898 24.9453C21.5173 24.9137 22.0025 24.766 22.3928 24.3757C23.089 23.6795 23.7852 22.9938 24.4709 22.2976C25.146 21.6014 25.0827 20.5888 24.3232 19.998C23.2472 19.1542 22.1607 18.3103 21.0742 17.4664C20.4519 16.9917 19.724 16.9917 19.1017 17.4664C18.9012 17.6246 18.7008 17.7829 18.5004 17.9411C17.3928 18.8166 16.0531 18.7322 15.0616 17.7407C14.1966 16.8757 13.3211 16.0002 12.4561 15.1352C11.3801 14.0592 10.3042 12.9938 9.22823 11.9073C8.26832 10.9369 8.19448 9.5972 9.03836 8.52125C9.19659 8.31028 9.36536 8.09931 9.53414 7.89888C10.0299 7.26597 10.0299 6.55922 9.53414 5.91576C8.70081 4.83981 7.86747 3.77441 7.03414 2.70901C6.40123 1.90732 5.39912 1.84403 4.68182 2.56133C4.03836 3.19424 3.416 3.84825 2.76199 4.47061C2.20292 4.99804 1.99195 5.63095 2.0025 6.36935Z" fill="#272727" stroke="#272727"/>
</svg>
