<svg width="27" height="27" viewBox="0 0 27 27" fill="none" xmlns="http://www.w3.org/2000/svg">
<path d="M21.1372 25.9158C19.5549 25.8947 18.5 25.5571 17.4768 25.1035C15.6519 24.2913 14.0274 23.1521 12.4979 21.8862C9.40719 19.3335 6.60129 16.5065 4.16458 13.3103C3.01479 11.8018 2.01268 10.209 1.41141 8.39467C1.08441 7.39256 0.915632 6.3799 1.1688 5.33559C1.29538 4.81872 1.53799 4.35458 1.90719 3.97483C2.62449 3.25753 3.33124 2.52969 4.05909 1.82294C5.13504 0.778632 6.81226 0.884117 7.74053 2.06555C8.60551 3.15205 9.45994 4.25964 10.3038 5.35669C11.0528 6.3377 11.0422 7.51914 10.2827 8.4896C10.1139 8.71112 9.94517 8.92209 9.77639 9.13306C9.24897 9.81872 9.29116 10.6099 9.90297 11.2322C10.7469 12.0761 11.5907 12.92 12.4346 13.7639C13.5317 14.8609 14.6182 15.9474 15.7152 17.0445C16.3903 17.7196 17.1815 17.7618 17.9304 17.171C18.1308 17.0128 18.3312 16.8546 18.5422 16.6964C19.4705 15.9791 20.7258 15.9791 21.6435 16.6858C22.7405 17.5297 23.827 18.3736 24.9135 19.228C26.1266 20.1774 26.2321 21.8651 25.1561 22.9622C24.5443 23.5845 23.9009 24.1858 23.2996 24.8293C22.5823 25.5993 21.7173 25.9263 21.1372 25.9158ZM2.00213 6.36935C1.97048 6.36935 1.94939 6.3799 1.91774 6.3799C2.06542 7.00226 2.17091 7.63517 2.37133 8.24699C2.9093 9.85036 3.81648 11.2639 4.81859 12.6035C7.20255 15.7681 9.97681 18.5634 13.0148 21.0845C14.4599 22.2871 15.9895 23.363 17.6983 24.1542C18.7426 24.6394 19.808 25.0086 20.9895 24.9453C21.5169 24.9137 22.0021 24.766 22.3924 24.3757C23.0886 23.6795 23.7848 22.9938 24.4705 22.2976C25.1456 21.6014 25.0823 20.5888 24.3228 19.998C23.2469 19.1542 22.1604 18.3103 21.0739 17.4664C20.4515 16.9917 19.7236 16.9917 19.1013 17.4664C18.9009 17.6246 18.7004 17.7829 18.5 17.9411C17.3924 18.8166 16.0528 18.7322 15.0612 17.7407C14.1962 16.8757 13.3207 16.0002 12.4557 15.1352C11.3798 14.0592 10.3038 12.9938 9.22787 11.9073C8.26795 10.9369 8.19411 9.5972 9.03799 8.52125C9.19622 8.31028 9.365 8.09931 9.53377 7.89888C10.0296 7.26597 10.0296 6.55922 9.53377 5.91576C8.70044 4.83981 7.86711 3.77441 7.03377 2.70901C6.40086 1.90732 5.39875 1.84403 4.68145 2.56133C4.038 3.19424 3.41563 3.84825 2.76162 4.47061C2.20255 4.99804 1.99158 5.63095 2.00213 6.36935Z" fill="#272727" stroke="white"/>
</svg>
