<svg width="38" height="40" viewBox="0 0 38 40" fill="none" xmlns="http://www.w3.org/2000/svg">
<g clip-path="url(#clip0)">
<path d="M28.1619 21.5222C28.8745 21.5222 29.5222 21.5222 30.17 21.5222C30.8826 21.5222 30.9959 21.6032 31.2226 22.2509C32.9878 27.3522 34.753 32.4696 36.5182 37.5708C36.6963 38.0566 36.8583 38.5586 37.0202 39.0445C37.1983 39.5789 36.923 39.9675 36.34 39.9837C36.2915 39.9837 36.2267 39.9837 36.1781 39.9837C24.4696 39.9837 12.7611 39.9837 1.05259 39.9837C1.00401 39.9837 0.971623 39.9837 0.92304 39.9837C0.275267 39.9675 -3.70741e-05 39.5951 0.210489 38.9797C1.0364 36.5829 1.86231 34.1862 2.68822 31.7894C3.78944 28.6153 4.89065 25.4412 5.99187 22.2671C6.21859 21.6032 6.33195 21.5222 7.0283 21.5222C7.67608 21.5222 8.34004 21.5222 9.0526 21.5222C8.87446 21.1983 8.71251 20.923 8.56677 20.6477C7.56272 18.8016 6.68822 16.8906 6.29956 14.8016C5.26312 9.21451 8.16191 3.56269 13.3441 1.18212C21.0526 -2.38063 29.9433 2.52625 31.0607 10.9635C31.3522 13.1335 31.0121 15.2388 30.2024 17.2631C29.6842 18.5748 29.004 19.8218 28.4048 21.0849C28.34 21.2145 28.2753 21.3441 28.1619 21.5222ZM18.6396 1.32787C18.6396 1.29548 18.6234 1.2469 18.6234 1.21451C17.6032 1.39264 16.5506 1.48981 15.5627 1.76511C9.95948 3.31977 6.52628 8.9554 7.65988 14.6558C8.11332 16.9392 9.11737 18.9959 10.2996 20.9554C12.2267 24.1781 14.6234 27.0445 17.2307 29.7327C18.0404 30.5748 19.2874 30.5748 20.0809 29.6841C21.3603 28.2752 22.6558 26.8501 23.838 25.3764C25.8461 22.8825 27.6437 20.2267 28.8259 17.2307C29.5708 15.3522 29.9919 13.4088 29.7813 11.3522C29.1821 5.66795 24.3724 1.32787 18.6396 1.32787ZM35.4979 38.6558C34.8826 36.8744 34.2834 35.1416 33.6842 33.4088C30.9149 33.4088 28.1943 33.4088 25.4413 33.4088C25.3765 34.2347 25.2955 35.0283 25.2307 35.838C25.166 36.5182 24.9878 36.6963 24.3077 36.6963C21.1336 36.6963 17.9595 36.6963 14.7854 36.6963C14.6396 36.6963 14.4939 36.6963 14.3158 36.6963C14.2348 37.3764 14.1538 38.008 14.089 38.6558C21.2307 38.6558 28.3239 38.6558 35.4979 38.6558ZM2.89875 35.3845C4.82587 35.3845 6.68822 35.3845 8.53438 35.3845C9.23073 35.3845 9.47365 35.6922 9.34409 36.3724C9.19834 37.1335 9.0526 37.8947 8.89065 38.672C10.2024 38.672 11.4817 38.672 12.7611 38.672C13.166 35.2226 13.5708 31.8056 13.9757 28.3886C13.9919 28.3076 13.9757 28.1781 13.9271 28.1295C13.4251 27.5141 12.923 26.9149 12.3886 26.2671C12.34 26.4129 12.3077 26.4939 12.2915 26.591C11.7894 28.5991 11.2874 30.6072 10.7854 32.6153C10.6073 33.3117 10.4777 33.4088 9.76515 33.4088C8.37243 33.4088 6.99591 33.4088 5.6032 33.4088C4.93923 33.4088 4.25907 33.4088 3.57891 33.4088C3.35219 34.0566 3.12547 34.6882 2.89875 35.3845ZM24.502 28.7773C23.9676 28.7773 23.4817 28.7611 23.0121 28.7935C22.8502 28.8096 22.6396 28.8906 22.5263 29.004C22.0405 29.506 21.5708 30.0404 21.085 30.5424C19.6599 32.0485 17.5708 32.0485 16.1457 30.5424C15.838 30.2186 15.5303 29.8947 15.1579 29.4898C14.9149 31.4979 14.7044 33.425 14.4777 35.3522C17.668 35.3522 20.7935 35.3522 23.9514 35.3522C24.1457 33.1659 24.3239 31.0121 24.502 28.7773ZM31.5627 27.4493C31.5627 27.4169 31.5789 27.3845 31.5789 27.3522C31.0931 25.9109 30.5911 24.4696 30.089 23.0445C30.0566 22.9473 29.8623 22.8663 29.749 22.8501C29.0688 22.8339 28.3724 22.8501 27.6923 22.8339C27.4332 22.8339 27.2874 22.9149 27.1255 23.1254C26.1376 24.4696 25.1498 25.7813 24.1457 27.1254C24.0809 27.2226 24 27.3036 23.9028 27.4493C26.4939 27.4493 29.004 27.4493 31.5627 27.4493ZM25.8299 28.7773C25.7328 29.9109 25.6518 30.9797 25.5546 32.0647C28.1295 32.0647 30.6558 32.0647 33.2145 32.0647C32.8421 31.0121 32.502 29.9756 32.1295 28.9392C32.0971 28.8582 31.919 28.7935 31.8056 28.7935C31.1417 28.7773 30.4939 28.7935 29.8299 28.7935C28.502 28.7773 27.1902 28.7773 25.8299 28.7773ZM9.53843 32.0647C9.86231 30.753 10.1862 29.4574 10.5263 28.1133C8.84207 28.1133 7.22264 28.1133 5.6032 28.1295C5.50604 28.1295 5.34409 28.2914 5.29551 28.421C4.89065 29.5222 4.51818 30.6396 4.12952 31.757C4.09713 31.8542 4.08093 31.9513 4.06474 32.0647C5.8947 32.0647 7.69227 32.0647 9.53843 32.0647ZM10.8502 26.7854C10.9473 26.4291 10.9959 26.0728 11.1255 25.7489C11.3846 25.1173 11.255 24.6153 10.8016 24.1133C10.4615 23.7246 10.2672 23.1092 9.86231 22.8987C9.44126 22.6882 8.84207 22.8339 8.32385 22.8339C7.22264 22.8339 7.22264 22.8339 6.85017 23.8866C6.52628 24.842 6.1862 25.7975 5.86231 26.7854C7.54652 26.7854 9.19834 26.7854 10.8502 26.7854ZM7.91899 36.7449C7.87041 36.7287 7.85422 36.6963 7.82183 36.6963C6.08903 36.6963 4.37243 36.6963 2.63964 36.6963C2.55867 36.6963 2.42911 36.7449 2.41292 36.7935C2.1862 37.3926 1.97567 38.008 1.76515 38.6558C3.65988 38.6558 5.48984 38.6558 7.30361 38.6396C7.40077 38.6396 7.56272 38.5262 7.57891 38.4453C7.69227 37.8947 7.80563 37.3117 7.91899 36.7449Z" fill="#0C8CD5"/>
<path d="M18.6235 2.63965C24.0972 2.63965 28.5182 7.0769 28.5182 12.5506C28.5182 17.9919 24.081 22.4291 18.6235 22.4291C13.1498 22.4291 8.72876 17.9919 8.72876 12.5182C8.74495 7.0607 13.166 2.63965 18.6235 2.63965ZM22.5911 20.0971C25.6842 18.5911 27.919 14.7206 26.9798 10.6235C26.0891 6.70443 22.4615 3.75706 18.1053 3.96758C14.2186 4.14572 10.7369 7.30362 10.1539 11.255C9.53848 15.4979 12.1134 18.9311 14.6559 20.0648C14.6559 18.1052 14.6559 16.1457 14.6559 14.1862C13.749 13.8785 13.085 13.3279 12.8421 12.4048C12.7126 11.9514 12.7126 11.4494 12.7126 10.9797C12.7126 9.58702 13.749 8.45341 15.0931 8.34005C16.4535 8.22669 17.668 9.13358 17.9271 10.4939C17.9919 10.8664 17.9919 11.255 17.9757 11.6437C17.9271 12.7773 17.3927 13.6032 16.3401 14.0405C16.0486 14.17 16 14.3158 16 14.5749C16.0162 16.4696 16 18.3643 16 20.2591C16 20.3886 16 20.5344 16 20.6477C17.6194 21.2307 19.7895 21.2307 21.247 20.6477C21.247 20.6154 21.2632 20.5668 21.2632 20.5344C21.2632 18.4939 21.2632 16.4696 21.2632 14.4291C21.2632 14.3158 21.1336 14.1376 21.0203 14.089C19.8867 13.587 19.3037 12.7125 19.2875 11.4818C19.2875 10.6882 19.2875 9.89471 19.2875 9.08499C19.2875 8.82588 19.2875 8.58297 19.2875 8.32386C19.7571 8.32386 20.162 8.32386 20.5992 8.32386C20.5992 8.4858 20.5992 8.61536 20.5992 8.74491C20.5992 9.68418 20.5992 10.6073 20.5992 11.5465C20.5992 12.0162 20.7611 12.4048 21.2632 12.7125C21.2632 11.2064 21.2632 9.76515 21.2632 8.32386C21.7166 8.32386 22.1377 8.32386 22.5911 8.32386C22.5911 9.78135 22.5911 11.2226 22.5911 12.7125C23.0445 12.3886 23.2227 12.0162 23.2227 11.5465C23.2227 10.6558 23.2227 9.76515 23.2227 8.87447C23.2227 8.69633 23.2227 8.502 23.2227 8.32386C23.6923 8.32386 24.0972 8.32386 24.5344 8.32386C24.5344 9.3441 24.5182 10.3482 24.5344 11.3522C24.5506 12.6639 24 13.587 22.7692 14.089C22.6721 14.1214 22.5587 14.2834 22.5587 14.3805C22.5911 16.2915 22.5911 18.17 22.5911 20.0971ZM16.6478 11.3522C16.6478 11.1903 16.6478 11.0931 16.6478 10.9959C16.6316 10.2348 16.0648 9.65179 15.336 9.65179C14.6073 9.65179 14.0405 10.2186 14.0243 10.9959C14.0243 11.2388 14.0081 11.4818 14.0243 11.7409C14.0891 12.6639 15.0607 13.2307 15.8867 12.8259C16.5344 12.5182 16.7126 11.9514 16.6478 11.3522Z" fill="#0C8CD5"/>
</g>
<defs>
<clipPath id="clip0">
<rect width="37.085" height="40" fill="white"/>
</clipPath>
</defs>
</svg>
