<svg width="25" height="25" viewBox="0 0 25 25" fill="none" xmlns="http://www.w3.org/2000/svg">
<path d="M17.8674 15.7233H16.731L16.3379 15.3302C17.7387 13.7078 18.582 11.5995 18.582 9.29102C18.582 4.15952 14.4225 0 9.29102 0C4.15952 0 0 4.15952 0 9.29102C0 14.4225 4.15952 18.582 9.29102 18.582C11.5995 18.582 13.7078 17.7387 15.3302 16.3451L15.7233 16.7381V17.8674L22.8702 25L25 22.8702L17.8674 15.7233ZM9.29102 15.7233C5.73899 15.7233 2.85878 12.8431 2.85878 9.29102C2.85878 5.73899 5.73899 2.85878 9.29102 2.85878C12.8431 2.85878 15.7233 5.73899 15.7233 9.29102C15.7233 12.8431 12.8431 15.7233 9.29102 15.7233Z" fill="white"/>
</svg>
